<mxfile host="65bd71144e">
    <diagram id="e2vpcQjTrHl_-cf4q4jL" name="第 1 页">
        <mxGraphModel dx="1852" dy="804" grid="1" gridSize="10" guides="1" tooltips="1" connect="1" arrows="1" fold="1" page="1" pageScale="1" pageWidth="827" pageHeight="1169" math="0" shadow="0">
            <root>
                <mxCell id="0"/>
                <mxCell id="1" parent="0"/>
                <mxCell id="5" style="edgeStyle=none;html=1;exitX=1;exitY=1;exitDx=0;exitDy=0;entryX=0.408;entryY=-0.081;entryDx=0;entryDy=0;entryPerimeter=0;" parent="1" source="2" target="6" edge="1">
                    <mxGeometry relative="1" as="geometry"/>
                </mxCell>
                <mxCell id="72" value="current" style="edgeLabel;html=1;align=center;verticalAlign=middle;resizable=0;points=[];" parent="5" vertex="1" connectable="0">
                    <mxGeometry x="0.1219" y="-1" relative="1" as="geometry">
                        <mxPoint as="offset"/>
                    </mxGeometry>
                </mxCell>
                <mxCell id="71" style="edgeStyle=none;html=1;entryX=0.75;entryY=0;entryDx=0;entryDy=0;exitX=1;exitY=0.5;exitDx=0;exitDy=0;" parent="1" source="2" target="6" edge="1">
                    <mxGeometry relative="1" as="geometry"/>
                </mxCell>
                <mxCell id="73" value="finishaedWork" style="edgeLabel;html=1;align=center;verticalAlign=middle;resizable=0;points=[];" parent="71" vertex="1" connectable="0">
                    <mxGeometry x="-0.4577" y="-2" relative="1" as="geometry">
                        <mxPoint as="offset"/>
                    </mxGeometry>
                </mxCell>
                <mxCell id="2" value="root" style="ellipse;whiteSpace=wrap;html=1;fillColor=#e3c800;fontColor=#000000;strokeColor=#B09500;" parent="1" vertex="1">
                    <mxGeometry x="270" y="30" width="80" height="80" as="geometry"/>
                </mxCell>
                <mxCell id="4" style="edgeStyle=none;html=1;exitX=0;exitY=0;exitDx=0;exitDy=0;entryX=0.5;entryY=1;entryDx=0;entryDy=0;" parent="1" source="6" target="2" edge="1">
                    <mxGeometry relative="1" as="geometry"/>
                </mxCell>
                <mxCell id="74" value="stateNode" style="edgeLabel;html=1;align=center;verticalAlign=middle;resizable=0;points=[];" parent="4" vertex="1" connectable="0">
                    <mxGeometry x="-0.0978" y="-3" relative="1" as="geometry">
                        <mxPoint as="offset"/>
                    </mxGeometry>
                </mxCell>
                <mxCell id="7" value="alternate" style="edgeStyle=none;html=1;exitX=1;exitY=0.25;exitDx=0;exitDy=0;entryX=0;entryY=0.25;entryDx=0;entryDy=0;" parent="1" source="3" target="6" edge="1">
                    <mxGeometry relative="1" as="geometry"/>
                </mxCell>
                <mxCell id="85" value="child" style="edgeStyle=none;html=1;entryX=0.802;entryY=-0.068;entryDx=0;entryDy=0;entryPerimeter=0;exitX=0.75;exitY=1;exitDx=0;exitDy=0;" parent="1" source="3" target="96" edge="1">
                    <mxGeometry relative="1" as="geometry"/>
                </mxCell>
                <mxCell id="3" value="wip（copy current）" style="rounded=1;whiteSpace=wrap;html=1;fillColor=#0050ef;fontColor=#ffffff;strokeColor=#001DBC;" parent="1" vertex="1">
                    <mxGeometry x="90" y="180" width="120" height="60" as="geometry"/>
                </mxCell>
                <mxCell id="8" style="edgeStyle=none;html=1;exitX=0;exitY=0.75;exitDx=0;exitDy=0;entryX=1;entryY=0.75;entryDx=0;entryDy=0;" parent="1" source="6" target="3" edge="1">
                    <mxGeometry relative="1" as="geometry"/>
                </mxCell>
                <mxCell id="75" value="alternate" style="edgeLabel;html=1;align=center;verticalAlign=middle;resizable=0;points=[];" parent="8" vertex="1" connectable="0">
                    <mxGeometry x="0.0792" y="3" relative="1" as="geometry">
                        <mxPoint as="offset"/>
                    </mxGeometry>
                </mxCell>
                <mxCell id="10" style="edgeStyle=none;html=1;exitX=0.25;exitY=1;exitDx=0;exitDy=0;entryX=0.25;entryY=0;entryDx=0;entryDy=0;" parent="1" source="6" target="9" edge="1">
                    <mxGeometry relative="1" as="geometry"/>
                </mxCell>
                <mxCell id="83" value="child" style="edgeLabel;html=1;align=center;verticalAlign=middle;resizable=0;points=[];" parent="10" vertex="1" connectable="0">
                    <mxGeometry x="-0.1221" y="-1" relative="1" as="geometry">
                        <mxPoint y="1" as="offset"/>
                    </mxGeometry>
                </mxCell>
                <mxCell id="6" value="HotRootFiber" style="rounded=1;whiteSpace=wrap;html=1;fillColor=#0050ef;fontColor=#ffffff;strokeColor=#001DBC;" parent="1" vertex="1">
                    <mxGeometry x="400" y="180" width="120" height="60" as="geometry"/>
                </mxCell>
                <mxCell id="11" style="edgeStyle=none;html=1;exitX=0.75;exitY=0;exitDx=0;exitDy=0;entryX=0.75;entryY=1;entryDx=0;entryDy=0;" parent="1" source="9" target="6" edge="1">
                    <mxGeometry relative="1" as="geometry"/>
                </mxCell>
                <mxCell id="84" value="return" style="edgeLabel;html=1;align=center;verticalAlign=middle;resizable=0;points=[];" parent="11" vertex="1" connectable="0">
                    <mxGeometry x="0.0269" relative="1" as="geometry">
                        <mxPoint y="1" as="offset"/>
                    </mxGeometry>
                </mxCell>
                <mxCell id="103" value="alternate" style="edgeStyle=none;html=1;exitX=0;exitY=0.75;exitDx=0;exitDy=0;entryX=1;entryY=0.75;entryDx=0;entryDy=0;fontSize=10;" parent="1" source="9" target="96" edge="1">
                    <mxGeometry relative="1" as="geometry"/>
                </mxCell>
                <mxCell id="110" value="child" style="edgeStyle=none;html=1;exitX=0.25;exitY=1;exitDx=0;exitDy=0;entryX=0.192;entryY=0.017;entryDx=0;entryDy=0;entryPerimeter=0;" parent="1" source="9" target="12" edge="1">
                    <mxGeometry relative="1" as="geometry"/>
                </mxCell>
                <mxCell id="9" value="App" style="rounded=1;whiteSpace=wrap;html=1;fillColor=#6a00ff;fontColor=#ffffff;strokeColor=#3700CC;" parent="1" vertex="1">
                    <mxGeometry x="390" y="300" width="130" height="60" as="geometry"/>
                </mxCell>
                <mxCell id="14" style="edgeStyle=none;html=1;exitX=0.75;exitY=0;exitDx=0;exitDy=0;entryX=0.75;entryY=1;entryDx=0;entryDy=0;" parent="1" source="12" target="9" edge="1">
                    <mxGeometry relative="1" as="geometry"/>
                </mxCell>
                <mxCell id="111" value="return" style="edgeLabel;html=1;align=center;verticalAlign=middle;resizable=0;points=[];" parent="14" vertex="1" connectable="0">
                    <mxGeometry x="-0.0973" y="1" relative="1" as="geometry">
                        <mxPoint as="offset"/>
                    </mxGeometry>
                </mxCell>
                <mxCell id="116" style="edgeStyle=none;html=1;exitX=0;exitY=0.75;exitDx=0;exitDy=0;entryX=1;entryY=0.617;entryDx=0;entryDy=0;entryPerimeter=0;" parent="1" source="12" target="112" edge="1">
                    <mxGeometry relative="1" as="geometry"/>
                </mxCell>
                <mxCell id="118" value="alternate" style="edgeLabel;html=1;align=center;verticalAlign=middle;resizable=0;points=[];" parent="116" vertex="1" connectable="0">
                    <mxGeometry x="0.1416" y="-4" relative="1" as="geometry">
                        <mxPoint as="offset"/>
                    </mxGeometry>
                </mxCell>
                <mxCell id="120" value="child" style="edgeStyle=none;html=1;" parent="1" source="12" target="15" edge="1">
                    <mxGeometry relative="1" as="geometry"/>
                </mxCell>
                <mxCell id="12" value="div" style="rounded=1;whiteSpace=wrap;html=1;fillColor=#d80073;fontColor=#ffffff;strokeColor=#A50040;" parent="1" vertex="1">
                    <mxGeometry x="400" y="400" width="120" height="60" as="geometry"/>
                </mxCell>
                <mxCell id="16" style="edgeStyle=none;html=1;exitX=0.75;exitY=0;exitDx=0;exitDy=0;entryX=0.75;entryY=1;entryDx=0;entryDy=0;" parent="1" source="15" target="12" edge="1">
                    <mxGeometry relative="1" as="geometry"/>
                </mxCell>
                <mxCell id="126" value="return" style="edgeLabel;html=1;align=center;verticalAlign=middle;resizable=0;points=[];" vertex="1" connectable="0" parent="16">
                    <mxGeometry x="0.2" relative="1" as="geometry">
                        <mxPoint as="offset"/>
                    </mxGeometry>
                </mxCell>
                <mxCell id="19" value="" style="edgeStyle=none;html=1;" parent="1" source="15" target="17" edge="1">
                    <mxGeometry relative="1" as="geometry"/>
                </mxCell>
                <mxCell id="20" value="" style="edgeStyle=none;html=1;" parent="1" source="15" target="17" edge="1">
                    <mxGeometry relative="1" as="geometry"/>
                </mxCell>
                <mxCell id="136" value="sibling" style="edgeLabel;html=1;align=center;verticalAlign=middle;resizable=0;points=[];" vertex="1" connectable="0" parent="20">
                    <mxGeometry x="-0.1143" y="1" relative="1" as="geometry">
                        <mxPoint as="offset"/>
                    </mxGeometry>
                </mxCell>
                <mxCell id="25" style="edgeStyle=none;html=1;exitX=0.25;exitY=1;exitDx=0;exitDy=0;" parent="1" source="15" edge="1">
                    <mxGeometry relative="1" as="geometry">
                        <mxPoint x="430" y="580" as="targetPoint"/>
                    </mxGeometry>
                </mxCell>
                <mxCell id="129" value="alternate" style="edgeStyle=none;html=1;" edge="1" parent="1" source="15" target="125">
                    <mxGeometry relative="1" as="geometry"/>
                </mxCell>
                <mxCell id="15" value="h1" style="rounded=1;whiteSpace=wrap;html=1;fillColor=#d80073;fontColor=#ffffff;strokeColor=#A50040;" parent="1" vertex="1">
                    <mxGeometry x="400" y="490" width="120" height="60" as="geometry"/>
                </mxCell>
                <mxCell id="18" style="edgeStyle=none;html=1;" parent="1" source="17" edge="1">
                    <mxGeometry relative="1" as="geometry">
                        <mxPoint x="510" y="460" as="targetPoint"/>
                    </mxGeometry>
                </mxCell>
                <mxCell id="37" style="edgeStyle=none;html=1;exitX=0.25;exitY=1;exitDx=0;exitDy=0;entryX=0.25;entryY=0;entryDx=0;entryDy=0;" parent="1" source="17" target="26" edge="1">
                    <mxGeometry relative="1" as="geometry"/>
                </mxCell>
                <mxCell id="17" value="ul" style="rounded=1;whiteSpace=wrap;html=1;fillColor=#d80073;fontColor=#ffffff;strokeColor=#A50040;" parent="1" vertex="1">
                    <mxGeometry x="590" y="490" width="120" height="60" as="geometry"/>
                </mxCell>
                <mxCell id="24" style="edgeStyle=none;html=1;exitX=0.75;exitY=0;exitDx=0;exitDy=0;entryX=0.75;entryY=1;entryDx=0;entryDy=0;" parent="1" source="23" target="15" edge="1">
                    <mxGeometry relative="1" as="geometry"/>
                </mxCell>
                <mxCell id="48" value="stateNode" style="edgeStyle=none;html=1;" parent="1" source="23" target="47" edge="1">
                    <mxGeometry relative="1" as="geometry"/>
                </mxCell>
                <mxCell id="23" value="文本" style="rounded=1;whiteSpace=wrap;html=1;fillColor=#a20025;fontColor=#ffffff;strokeColor=#6F0000;" parent="1" vertex="1">
                    <mxGeometry x="400" y="585" width="120" height="60" as="geometry"/>
                </mxCell>
                <mxCell id="28" style="edgeStyle=none;html=1;exitX=0.75;exitY=0;exitDx=0;exitDy=0;entryX=0.75;entryY=1;entryDx=0;entryDy=0;" parent="1" source="26" target="17" edge="1">
                    <mxGeometry relative="1" as="geometry"/>
                </mxCell>
                <mxCell id="31" value="" style="edgeStyle=none;html=1;" parent="1" source="26" target="29" edge="1">
                    <mxGeometry relative="1" as="geometry"/>
                </mxCell>
                <mxCell id="39" value="" style="edgeStyle=none;html=1;" parent="1" source="26" target="38" edge="1">
                    <mxGeometry relative="1" as="geometry"/>
                </mxCell>
                <mxCell id="26" value="li" style="whiteSpace=wrap;html=1;rounded=1;fillColor=#d80073;fontColor=#ffffff;strokeColor=#A50040;" parent="1" vertex="1">
                    <mxGeometry x="590" y="585" width="120" height="60" as="geometry"/>
                </mxCell>
                <mxCell id="30" style="edgeStyle=none;html=1;entryX=1;entryY=0.75;entryDx=0;entryDy=0;exitX=0;exitY=0;exitDx=0;exitDy=0;" parent="1" source="29" target="17" edge="1">
                    <mxGeometry relative="1" as="geometry">
                        <mxPoint x="750" y="580" as="sourcePoint"/>
                    </mxGeometry>
                </mxCell>
                <mxCell id="35" value="" style="edgeStyle=none;html=1;" parent="1" source="29" target="33" edge="1">
                    <mxGeometry relative="1" as="geometry"/>
                </mxCell>
                <mxCell id="42" value="" style="edgeStyle=none;html=1;" parent="1" source="29" target="41" edge="1">
                    <mxGeometry relative="1" as="geometry"/>
                </mxCell>
                <mxCell id="29" value="li" style="whiteSpace=wrap;html=1;rounded=1;fillColor=#d80073;fontColor=#ffffff;strokeColor=#A50040;" parent="1" vertex="1">
                    <mxGeometry x="740" y="585" width="120" height="60" as="geometry"/>
                </mxCell>
                <mxCell id="34" style="edgeStyle=none;html=1;entryX=1;entryY=0.5;entryDx=0;entryDy=0;exitX=0;exitY=0;exitDx=0;exitDy=0;" parent="1" source="33" target="17" edge="1">
                    <mxGeometry relative="1" as="geometry">
                        <mxPoint x="910" y="580" as="sourcePoint"/>
                    </mxGeometry>
                </mxCell>
                <mxCell id="46" style="edgeStyle=none;html=1;exitX=0.25;exitY=1;exitDx=0;exitDy=0;entryX=0.25;entryY=0;entryDx=0;entryDy=0;" parent="1" source="33" target="44" edge="1">
                    <mxGeometry relative="1" as="geometry"/>
                </mxCell>
                <mxCell id="33" value="li" style="whiteSpace=wrap;html=1;rounded=1;fillColor=#d80073;fontColor=#ffffff;strokeColor=#A50040;" parent="1" vertex="1">
                    <mxGeometry x="890" y="585" width="120" height="60" as="geometry"/>
                </mxCell>
                <mxCell id="40" style="edgeStyle=none;html=1;exitX=0.25;exitY=0;exitDx=0;exitDy=0;entryX=0.25;entryY=1;entryDx=0;entryDy=0;" parent="1" source="38" target="26" edge="1">
                    <mxGeometry relative="1" as="geometry"/>
                </mxCell>
                <mxCell id="38" value="文本- one" style="whiteSpace=wrap;html=1;rounded=1;fillColor=#a20025;fontColor=#ffffff;strokeColor=#6F0000;" parent="1" vertex="1">
                    <mxGeometry x="590" y="700" width="120" height="60" as="geometry"/>
                </mxCell>
                <mxCell id="43" style="edgeStyle=none;html=1;exitX=0.25;exitY=0;exitDx=0;exitDy=0;" parent="1" source="41" edge="1">
                    <mxGeometry relative="1" as="geometry">
                        <mxPoint x="770" y="650" as="targetPoint"/>
                    </mxGeometry>
                </mxCell>
                <mxCell id="41" value="文本-two" style="whiteSpace=wrap;html=1;rounded=1;fillColor=#a20025;fontColor=#ffffff;strokeColor=#6F0000;" parent="1" vertex="1">
                    <mxGeometry x="740" y="700" width="120" height="60" as="geometry"/>
                </mxCell>
                <mxCell id="45" style="edgeStyle=none;html=1;exitX=0.75;exitY=0;exitDx=0;exitDy=0;entryX=0.75;entryY=1;entryDx=0;entryDy=0;" parent="1" source="44" target="33" edge="1">
                    <mxGeometry relative="1" as="geometry"/>
                </mxCell>
                <mxCell id="44" value="文本-three" style="whiteSpace=wrap;html=1;rounded=1;fillColor=#a20025;fontColor=#ffffff;strokeColor=#6F0000;" parent="1" vertex="1">
                    <mxGeometry x="890" y="700" width="120" height="60" as="geometry"/>
                </mxCell>
                <mxCell id="47" value="dom" style="ellipse;whiteSpace=wrap;html=1;" parent="1" vertex="1">
                    <mxGeometry x="250" y="700" width="80" height="80" as="geometry"/>
                </mxCell>
                <mxCell id="49" value="dom" style="ellipse;whiteSpace=wrap;html=1;" parent="1" vertex="1">
                    <mxGeometry x="300" y="550" width="60" height="45" as="geometry"/>
                </mxCell>
                <mxCell id="50" value="stateNode" style="edgeStyle=none;html=1;entryX=1;entryY=0.5;entryDx=0;entryDy=0;exitX=0;exitY=0.5;exitDx=0;exitDy=0;" parent="1" source="15" target="49" edge="1">
                    <mxGeometry relative="1" as="geometry">
                        <mxPoint x="429.20000000000005" y="655" as="sourcePoint"/>
                        <mxPoint x="332.2260405059758" y="726.3043819809002" as="targetPoint"/>
                    </mxGeometry>
                </mxCell>
                <mxCell id="51" value="dom" style="ellipse;whiteSpace=wrap;html=1;" parent="1" vertex="1">
                    <mxGeometry x="480" y="790" width="80" height="80" as="geometry"/>
                </mxCell>
                <mxCell id="52" value="stateNode" style="edgeStyle=none;html=1;exitX=0;exitY=0.75;exitDx=0;exitDy=0;" parent="1" source="38" target="51" edge="1">
                    <mxGeometry relative="1" as="geometry">
                        <mxPoint x="429.20000000000005" y="655" as="sourcePoint"/>
                        <mxPoint x="332.2260405059758" y="726.3043819809002" as="targetPoint"/>
                    </mxGeometry>
                </mxCell>
                <mxCell id="53" value="dom" style="ellipse;whiteSpace=wrap;html=1;" parent="1" vertex="1">
                    <mxGeometry x="990" y="320" width="80" height="80" as="geometry"/>
                </mxCell>
                <mxCell id="54" value="stateNode" style="edgeStyle=none;html=1;exitX=0.75;exitY=0;exitDx=0;exitDy=0;" parent="1" source="29" target="53" edge="1">
                    <mxGeometry relative="1" as="geometry">
                        <mxPoint x="600" y="755" as="sourcePoint"/>
                        <mxPoint x="610" y="860" as="targetPoint"/>
                    </mxGeometry>
                </mxCell>
                <mxCell id="55" value="dom" style="ellipse;whiteSpace=wrap;html=1;" parent="1" vertex="1">
                    <mxGeometry x="1130" y="440" width="80" height="80" as="geometry"/>
                </mxCell>
                <mxCell id="56" value="stateNode" style="edgeStyle=none;html=1;" parent="1" source="33" target="55" edge="1">
                    <mxGeometry relative="1" as="geometry">
                        <mxPoint x="610" y="765" as="sourcePoint"/>
                        <mxPoint x="352.2260405059758" y="746.3043819809002" as="targetPoint"/>
                    </mxGeometry>
                </mxCell>
                <mxCell id="57" value="dom" style="ellipse;whiteSpace=wrap;html=1;" parent="1" vertex="1">
                    <mxGeometry x="730" y="840" width="80" height="80" as="geometry"/>
                </mxCell>
                <mxCell id="58" value="stateNode" style="edgeStyle=none;html=1;" parent="1" source="41" target="57" edge="1">
                    <mxGeometry relative="1" as="geometry">
                        <mxPoint x="620" y="775" as="sourcePoint"/>
                        <mxPoint x="362.2260405059758" y="756.3043819809002" as="targetPoint"/>
                    </mxGeometry>
                </mxCell>
                <mxCell id="59" value="dom" style="ellipse;whiteSpace=wrap;html=1;" parent="1" vertex="1">
                    <mxGeometry x="870" y="850" width="80" height="80" as="geometry"/>
                </mxCell>
                <mxCell id="60" value="stateNode" style="edgeStyle=none;html=1;entryX=0.5;entryY=0;entryDx=0;entryDy=0;" parent="1" source="44" target="59" edge="1">
                    <mxGeometry relative="1" as="geometry">
                        <mxPoint x="1000" y="820" as="sourcePoint"/>
                        <mxPoint x="950" y="875" as="targetPoint"/>
                    </mxGeometry>
                </mxCell>
                <mxCell id="61" value="dom" style="ellipse;whiteSpace=wrap;html=1;" parent="1" vertex="1">
                    <mxGeometry x="827" y="310" width="80" height="80" as="geometry"/>
                </mxCell>
                <mxCell id="62" value="stateNode" style="edgeStyle=none;html=1;exitX=1;exitY=0;exitDx=0;exitDy=0;entryX=0.672;entryY=0.948;entryDx=0;entryDy=0;entryPerimeter=0;" parent="1" source="26" target="61" edge="1">
                    <mxGeometry relative="1" as="geometry">
                        <mxPoint x="840" y="595" as="sourcePoint"/>
                        <mxPoint x="1013.4254464468031" y="399.89637274734673" as="targetPoint"/>
                    </mxGeometry>
                </mxCell>
                <mxCell id="63" value="dom" style="ellipse;whiteSpace=wrap;html=1;" parent="1" vertex="1">
                    <mxGeometry x="660" y="420" width="50" height="30" as="geometry"/>
                </mxCell>
                <mxCell id="64" value="stateNode" style="edgeStyle=none;html=1;entryX=0.5;entryY=1;entryDx=0;entryDy=0;" parent="1" source="17" target="63" edge="1">
                    <mxGeometry relative="1" as="geometry">
                        <mxPoint x="720" y="595" as="sourcePoint"/>
                        <mxPoint x="890.7600000000002" y="395.8399999999999" as="targetPoint"/>
                    </mxGeometry>
                </mxCell>
                <mxCell id="65" value="dom" style="ellipse;whiteSpace=wrap;html=1;" parent="1" vertex="1">
                    <mxGeometry x="604" y="420" width="50" height="40" as="geometry"/>
                </mxCell>
                <mxCell id="66" value="stateNode" style="edgeStyle=none;html=1;" parent="1" source="12" target="65" edge="1">
                    <mxGeometry relative="1" as="geometry">
                        <mxPoint x="673.125" y="500" as="sourcePoint"/>
                        <mxPoint x="730" y="370" as="targetPoint"/>
                    </mxGeometry>
                </mxCell>
                <mxCell id="76" value="HostRoot = 3" style="rounded=1;whiteSpace=wrap;html=1;fillColor=#0050ef;fontColor=#ffffff;strokeColor=#001DBC;" parent="1" vertex="1">
                    <mxGeometry x="690" y="180" width="90" height="40" as="geometry"/>
                </mxCell>
                <mxCell id="78" value="FunctionComponent = 0" style="rounded=1;whiteSpace=wrap;html=1;fillColor=#6a00ff;fontColor=#ffffff;strokeColor=#3700CC;" parent="1" vertex="1">
                    <mxGeometry x="797" y="180" width="143" height="40" as="geometry"/>
                </mxCell>
                <mxCell id="79" value="HostComponent = 5" style="rounded=1;whiteSpace=wrap;html=1;fillColor=#d80073;fontColor=#ffffff;strokeColor=#A50040;" parent="1" vertex="1">
                    <mxGeometry x="690" y="230" width="120" height="40" as="geometry"/>
                </mxCell>
                <mxCell id="80" value="HostText = 6" style="rounded=1;whiteSpace=wrap;html=1;fillColor=#a20025;fontColor=#ffffff;strokeColor=#6F0000;" parent="1" vertex="1">
                    <mxGeometry x="830" y="230" width="90" height="40" as="geometry"/>
                </mxCell>
                <mxCell id="86" style="edgeStyle=none;html=1;entryX=0;entryY=0.5;entryDx=0;entryDy=0;" parent="1" source="82" target="112" edge="1">
                    <mxGeometry relative="1" as="geometry"/>
                </mxCell>
                <mxCell id="82" value="workinProgress" style="ellipse;whiteSpace=wrap;html=1;" parent="1" vertex="1">
                    <mxGeometry x="-190" y="415" width="130" height="70" as="geometry"/>
                </mxCell>
                <mxCell id="87" style="edgeStyle=none;html=1;exitX=0.75;exitY=0;exitDx=0;exitDy=0;entryX=0;entryY=1;entryDx=0;entryDy=0;" parent="1" source="3" edge="1">
                    <mxGeometry relative="1" as="geometry">
                        <mxPoint x="410" y="190" as="sourcePoint"/>
                        <mxPoint x="291.71572875253787" y="108.28427124746202" as="targetPoint"/>
                    </mxGeometry>
                </mxCell>
                <mxCell id="88" value="stateNode" style="edgeLabel;html=1;align=center;verticalAlign=middle;resizable=0;points=[];" parent="87" vertex="1" connectable="0">
                    <mxGeometry x="-0.0978" y="-3" relative="1" as="geometry">
                        <mxPoint as="offset"/>
                    </mxGeometry>
                </mxCell>
                <mxCell id="89" value="memoizedState" style="edgeStyle=none;html=1;exitX=0.882;exitY=0.003;exitDx=0;exitDy=0;entryX=-0.003;entryY=0.889;entryDx=0;entryDy=0;entryPerimeter=0;exitPerimeter=0;" parent="1" source="6" target="90" edge="1">
                    <mxGeometry relative="1" as="geometry">
                        <mxPoint x="534" y="170" as="sourcePoint"/>
                    </mxGeometry>
                </mxCell>
                <mxCell id="90" value="ReactElementtype" style="rounded=1;whiteSpace=wrap;html=1;fillColor=#6d8764;fontColor=#ffffff;strokeColor=#3A5431;opacity=40;" parent="1" vertex="1">
                    <mxGeometry x="604" y="30" width="120" height="60" as="geometry"/>
                </mxCell>
                <mxCell id="91" style="edgeStyle=none;html=1;entryX=0.988;entryY=0.326;entryDx=0;entryDy=0;entryPerimeter=0;" parent="1" source="92" target="90" edge="1">
                    <mxGeometry relative="1" as="geometry"/>
                </mxCell>
                <mxCell id="92" value="" style="shape=image;verticalLabelPosition=bottom;labelBackgroundColor=default;verticalAlign=top;aspect=fixed;imageAspect=0;image=data:image/png,iVBORw0KGgoAAAANSUhEUgAAAioAAAFyCAYAAADbBfG0AAAACXBIWXMAABYlAAAWJQFJUiTwAAAgAElEQVR4nOydd3hUVfrHvzN3etpMJp2E9ASSEEoMTUF6F7GgYqHYC+suruvqYvmpa1ll1cWyi6LYsAIiKAiCaASRUEIoIY30NqkzyfRM+f0x5s7c3DuTSZkk6Pk8T57cU+65Z2buvec973nf9/DsdrsdBAKBQCAQCMMQ/lB3gEAgEAgEAsEdRFAhEAgEAoEwbCGCCoFAIBAIhGELEVQIBAKBQCAMWwRD3QECgUDwBvXRn2Gur4VQroBi1vyh7g6B8IfFqteh5bvdAIDAyyZDMjLOp9cbckHFau5Ea3kdeHw+QpJj+tRGe30zTO06+IcqIA0OHOAeEvqCzWKFoa0DBk0H7FYbAIASChCcMGKIe/b7xaxqgNVoAI+iIIkeOSR9sJnN0Bdf4CwThYZDFB7Rp3ZNDXWo/teTAIDwlff0uX+ESw9f3VOEvsMXS6A5tB/G6nJ0nPgVic+9CvB4PrvekAsqzaU12Dr3EQDAQ7Vf9qmNH5/ZgtJduZj54h0Yf9uCgeweoZdUHy/A0Ve+QE3OeVaZSC7F2vMfDkGvvMdQXgpDaRFMtTXobG4EFaSAUBkCSVwC/EZngJLKhrqLbqna8CwMJQUAgDE7Dw1JHzqbVCh//C+cZWE3rUb4Tav61K7qo80AAErqB+WCpX3uH+HSw1f3FKHv8CgKYbfeiaoX1kNfkA/1r4chnzLNZ9cbckFlQOllSJiWi7XI/2Q/nRYHyHD5X24c6F79YWgtq8WXy54a6m70ic62FjR8/C7UB/d6rBe6fCUiblkzSL269OAJBv6Vois8D80Rh+AVetNqULLhKywOVwzlpWj7YR8AQDFjLqSJKUPcI+/xxT1FABq3bYVFowblH4DwG1f2+vzA7MmQxCXBWFEK1XtvISh7is9+q6G/A2z9jzdn/60Ney/b6qhrwun/7aHTIrmUCCr9IO99z4P8cMWq16N8/UMw1VUx8iUx8TBWlzPyjBWlg9m1Sw5ReCRDm2OouIjSv9zZrzZbvtlBHytmzOlXW39UTA31aNm9DQAgS0m7pAQVX9xTBKBt3zcwNzVAoFD2SVDh8flQLrkOtW/8C+amBrSfzEXQpKk+6OkQCSoWgwmnP/sepd/lou6wc+3xlRHLEZoZi4isFERPTEPq4ingUxRnG/Wni3Huy0Mo2nkEZrUBAPDj+i04/sZOhIyJRfTkdCTNyYYykdhEDBYtJTWMdOy8cbjibzfDL0QOAODzfbeG2R/qP9hECymSmHhE3vNn+GeMdRTa7bCo29B+4ihUn2wZwl7+Melsa4Hm8A8AgMDJ0yEIkg9xjwgEQhdBk6ai9g3Hcevenb8fQaW9rhnbb3kGbcX1nOVNZyrRdKYSZ7d8j4SiCRD7s9W8xzbtxJFntnKer6tvg66+DZX7T8NiMBENySDSVlLHSKdfNwPhafFD1BvvsFutaNu3i07HPvkCRKHhzgo8HgSKYATPXQzFzPkw1lZxtELwFW0/HaSP5TOJpw+BMJygAgIRdPlMaI4cgvb0cZga6iCOiBrw6wyqoGK32bH/0f+6FVK8oeb4BbdCSk9YjGZUHDlDp+tPlzDKzWoDSg+eYOTxeDzEXzkOfIqCvkWDum7nxE0dA4FUzLpWc2k11JUqOi2UihA7NRMAoFW1ouFcGV0mDpQhJjsNmppGVB87j5pjFxAQpUTkuGSMnJwBgUTk8XN1NLSg4VwZWkuq0VJSA78wBZTJ0VAmRSNybHIP34rDQ6c+vxTNJVVoOl8Ju92G0FGxUKbGIGpsMiiRkPO8lou1aKtw/pa6+jZGeVNRFeO7EYgEiJs2zm0/GhsbUVhYSKd5PB6mTp0Kyo1WbSAwVlfQxwHZU5lCSjd4AgGksQmMPKtBD+3Z0wAAYZAcstQ0j9fT5ufBanJoAAOzJoFHUTCUlcDc3ARK5gdRaDjUR36EqbYKfmljETRlGiipBJrcX6E9cxI8Ph/+Y7MQeNnkHj+bWVUPXcE56C6cBSWTQZqUCr+0MRAGh/R4bmdrM3RFF2CqLINZ1QBRWDjEsfHwSxkNYUhYj+cPFB25v9DH/mkZvTrX2tEO7YVzAADJyDiII6Jg1XZAffgQjNWVsGo7IAqLhF/6GASMnQDwuMNKGcpKYawsh7HyIiwaDSSxCZDExcN/zDjwKA+vULsdxupK6ArPo7NRhc6WJvBEIkhi4yGJiYM0MRmUzM/rz2OoLIepqgKmmkqYGuogVARDGB6JwAmTWJ4vna3N0JcW02n9b98DAOiLC8ATM99ZPD7fq3uqP9g6O2EouQBjZQUMFRcBANKEZEgTkiFLTvXptfvTB188n325p0x1NTDWOCZK/hljwReLYSi7CN2FczCUFUMcHglJYgqCsidz3suu7x4AsGo7AAB2oxEal+esi65npif8x0+kbch0Z/MufUGltbwOVQedgoJILkXCgmwUfpYDAFiy5WE0F1ah4LNDaK9s4mzjzGcHGOmERVloPl+F9somjF5xJaImpKD2RCEKP/+Zda5W1YpdK//lsY9c5WuLPoDIXwazwcgqX7x5HVIXstVdPzzxLsPzJWFRFi2o1J4sxLd3vUqXhWbGYtr627Djxn+y2omckoplmx+FVO7PKrPb7Djz2fc4+Ld33H6epKUTMfuZu+AXyq0y19Q2Ye9DrzOW4FwJG5+AJW+ugzyW7QJYuPswjr28ze21j7+yg5Huyevn5MmTWLt2LSMvNzcXSqXS7Tn9xW4y0cfm2hqHQXZv3OzsdlQ9vx6AwyNl1AfbwRexBVfAsYxR/tRDAACBQonAzZ8DAJq+/hKan76n8y1tLQAA9cG96Dj+C6RJKVB9vJlup2X3NoxY+3cEz3Hv4dZ+KheVz/ydsyz+2VfhP8a9wKg++jPtCsxF9Lr1UFzpe1sRq9EAfUE+AEAcNRJUQO9CDxgqy+nfJmLNA/AfO57TtqHpS0C59AZE3X4f8/p6HWrf3gjNj/tZ5wCAbFQGYv76OKdwa6ypQvkTD9G/JRcChRKx/3iux0Haqu1A3Zb/ujX0rgcgn7kAMX92/t66grOo3vAMZ/2W3dtoexVXMrYfAM9HkwJjbRWqX3kexotFjPyuqY1i/lJE3X4f+GKJT67fnz4M5PPZn3tKczQHqo8c7/qEFzaiadun6Dh5lFUv6IpZiH7wEdZ7qPq15zjvR6tBRz8nroSvvg9hy27g7Kcr0sQk+lh7Lh/Bcxf3eE5vGdTItC0XmTYMmavmI+uOJXQ6Zd4kTH1wOW7/+XUs2/oYhBL2C191iqnRmP/yAwgb61heiByXjLE3z8OiVx7EHblvIWlO9oD2Xx4djth5zBd84c7DrHodDa0s99y0G2a6bbfpTCWnkAIA9UeLsG3F/9GxSGjsduxe+4pHIQUASnflYsuMB6GpaWSVqc6X492J97sVUgCgMa8M7039E2pPFrmtcykjDHVqB0x1VdAXF3qozYaS+UEx3+EuazXo0H4y121dzZEc+li5+BrOQcHS1gJJnPPBb/81B6qPN0OgUEIc5YyN0rzjU4/96hJSKKkf/DLGM8rKn1hHa4G607J3F0NIoaR+kKWNBSV1zvxrXn0OjV995vH6A4GxzPmsy7pshvqItV2Dquced1tuM+gZ6c7mJhQ/sIoxoEgSUxnfpb7wHEofvAOdHC9/m07LGBQECiX8xmTBb0wW/V1a2lpw8W/3cs5muzCr6lH8pzUMIUWgUMJ/XDZEoc7Jg/b0ccZ5fKkM4qiR9J/r70dJ/RhlXX++ioPRkX8KJQ+sYggIsrSxkCQ6BbS2fbtQ/tTfYLdah3Uf+vN89veecqXymcdoIUWSmMr4fTWHf4D6pwOsc8TRcczf27WM434Q+Hs3MZDExNHHWg/3cn8YVI1Kp97ESBta2znr8SkKCTMmcJbpGtWMtEmj46wXNCIUQSNCGXk8qm9yGY/vPG/MzXNQud/5kr/4zXEYWtsZgebKfjzJOF8klyJhGnOwcIdILqWNg7toOlOJyl/OMJZNig/kovTrXxn1/CIVCB+fgLI9zOub1Qb8/NJWLNm4js6z2+z44al3veoTABz4+/9w274NDONmd0tClxJCRTBEoREwNzUAAC7+/X6E33InAiddDklMrFcv7+BZC2g7F/WBvW7jCbTt200fy6fN5qwT938vI2DcZWj9/lvUvrmBzk9+5W1QgUGoe+8ttH67A6a6KpibVB6XqkKXr0TEzasAHh92qxW1b2+k+6na+i78X3ydUd9q0EP14dt0OvzWOxF23QqHGtluR/O3O1G/eaPj/A82QTl7IajAIE9fTb/obHZqVUWR/VMnN23/GAAQkDUFEavuhnhENHh8Cp0tzWjZuwtWvZZRv/7jzbSg4T8uG9FrH6aXvGwmI+rf34TWvTthNejQ8OFmhjajC4FCiZBrVkAxfTYEcqdG0261omX/N6jf9BoAQPX+JgReNpnxnqH78e5bdD8kMfGIfvgJSGOddl/WjnY0fLIF7b8yNciBWZMQmDWJTrtqyaLu/yvk09xPnAYSm9mEujdeptMhy25E+IrVtNais7kRVa88D31BPvSF56D+6cCARx0eyD705/kciHuqC6tBh6ArZmHEA391xHay29H41edQfbgJAND0xccszUbCsxsY6aK7VtBePylvfdDj9+gOnkAAcdRImOqqYDXoYDXoBzze1KBqVILjmMsH5z/6Ad8/8r9etRE5kakm3bbiGVTlnPXq3KDoMDxU+yX9d+1nTHWXSC5llHf9CWVOVWDi9AkQyaWM80oPMmczBdt+YqTTVszq0c5EJJdi5U+vYO35D7F859Os8tMffkcfW4xmHHqMKWSkXDcVdx55E8veeRQPXtyK+W8wl1CKt/+C+tPONevifUdRf5SpJZn29G1YV/U51lV/gdkv38Uoa7lQg/NfMT/X5PuvZXxPfpEKRvk1n61nlA/LYG88PkY8yHwhqLZuRsmDa1Bw81Woeu0FaHJ/gc1kdNuELGUUJDGOwaPj5FHGANuFoayEdnX2H8+2KejCL20MACAw+3Jn+6MyIFAEg0dRCMyeQudb2tpY53fhPy7bEe/lt7VqHkVhxD1/pvupL3TYrrjSun8PrAaH4C+fPgdh19/iXOvm8RCy5BoEL7iart+8Z6fb6w8ElnbnREbgH9Dv9uRzFiN2/T8hGRnnsAPg8SAMCUXEbXdgxN0P0vX0RQX0rFcSE4/YfzzLsMvhiyUYcfefIEtzaHnUh76DsaqCcS1ZyiiM2vw5QpdexxBSAMdvEbLwagRkO5aMTXVVMNWwjbQ7Tp9Ae65DY0tJ/ZDw0hsMIQVwGDOOuOfPSHj+P338VnxL856d9CRAMX8pIlffy1haEYaEIfaRp2iNQP07r8Nus3G2NRz60NfncyDuKVcECiVi1j3mFAh4PIQuu4HWlJibGmDVc0/ifQEld777u2xfBpJBFVRCU2NZg1ljntOo9JNrHsOx/30FdWWD2zaSF0xipNsrm2gNxOEXtuK7R95C8b5fYfORCpESC5G5miltn3cRTNrrm1kCQPrVPUfsm/XCXQhJcmwhEJOdhimPMr2VXLUkqoJyluHqxAeuBSV2aDgEEhHSl02HIiWSUacuz6lKL9l7jFE2cnYmsu9cCh7FB4/Pw9ib5yH5mimMOsXfstdDBxK5XI6srCzGn0jkWcAbCPzHjEPc0/+GQMG0hbEadND8uB9Vz6/H+RsXovXAHu6ggjweFIucA3jbYXZUWHWO03tFMY97DZeS+tHrylSAc2AWhjt/R4GLnYa123KFK1zX4PH5UMy/ik7rLjCXJ/Xn813OXwIugucuoo+1Z/LcXn8gsHZo6GO+l2poT0TctIpTawGAoTnTHHVqJ8JuvZPb5ojHR+i1N9FJQ3kpq7wnew9ZunM5q7O1mVXefuwIfRy+5j6Ps1Rx5PAMw6A5uI8+jlixmrOOQK6AYqHj+bEadDA3un//D2Uf+vN8Dsg95YLy6htYRrc8Ph9+mU7NvUXtfiIz0AhcNKtWndZDzT62P+AterqYVIwFG9di+/JnOcsbckvRkFuKI89+gpkv3O4Ih99N9Z5x/UwU7TqC6h/Psc43qw0o2HoIBVsPIXJKKha+9ifIo92rxvtK2jXTceI152yy7vAFaGqbEDQiFGUHmcsuipRIhGckdG+CReKsLEY6aV42jr74OSPP1KGHOEAGdZUK3an65SyqfvNosv82mAr9mJofdbnTQ6elgDmDy7hhFqvNtOtmoOQrp3DSfLayx8/RH6ZMmYIpU6b0XNEHBIydgNS3P0XHqeNoP3IIHceP0tqFLmrfeBmGiyUYcc+fWefLp15Jq/Lbvv0KYVdfT2sjbGYz2vZ9A8DxsgvMmsjZB57EOctzHeRcZ388oVNw625X4YoskdtAU5Y8ij7ubGLeR+b6Wme9JO7zJfHO9XlzfQ1nnYGC8SK2WvrVlv/4SRCGhPZcEYCp2nmfqz7YxGl4CjBnjsbyUoDDwNjaroH6l59gbqiDWdXAsFsxq5zPo81s9tgP12WcSwW71coImFi1gfu9DwAmF7d/Y1XFgHmODGQf+vN8DuQ9BQDiyGjOfIEi2NmWbvA0KnaX55PHH3iD7EGPoxI7NRO3/bABB9a/w9I8uHLosffgF65AynymmxefonDtB4/jxOZdOPLsJ27Prz9ahK9Xv4hb974MSjiwHzMkKQaRU1IZ/S/dn4usNYtxYSdzrThz5fwe7RxEcikrXkxABNuFVNesdggqLi7BXeQ83vMaY1dANpvVipYLzEEmKIbtchoUw3yx6+rbYDGYON2xfw/whUIETZrqCFpkt8FYU42OvBNo3b2NVh237t0J+ZVz4DcqnXGuIEiOoBnzoPlxP8xNDdAVXaDrdJw+QQs9ivlL3XoFuRrEdaWtBh34Lq6kPKHTLshu6XT7WahAbg0EFeSc+ZgbXO4ju43xQudLuL0veHw+7flgaWuBzWxy+3n6i+tnsHb0T50siuJ+sXNhKHMukZrqqlgRi7no7D57tdug+uxDNH7u5do/h6LOeNHZD4Fcwa4wzOm+BKo7550Grr+/ta/60J/nc0DuKReEbu4HV0EJNt+sKnBhUTttRwW99M7zhiGJTBuaGosV2/4JdY0K5748hNwN2znr7X/oLSSdyWZFp6UEFCbdew0uW7ME1bnncejJ9zhjs7RcqEHB1zkYcz1bW9Bfxt42jyGonNt6AElzs1nCV+qinjUEkiC267GQw6alU+ewk9A3a1hl3mDucCyR2czs2amrHQ6dJ2XnGdt18P+dCioMeHxIYmIhiYmFcv5ilD/9KO0qq/7xe5agAgDBsxfS69Bth/bTddSHnFb+8plz3V/SG9dQLz0z3Ll5ul7DdfbmOqPvvgTWHYF/IK0ZsOkNPhRUXNTJ/Vz3FoZ6p00BwNB6RN7zF/C92L9EFMFcelF98TFDSPHLGA+/9EyHLYPQ8X1pz5yk3V7t3QYVu9VKC7eU1M9nbsO+xKpz/mYChRLhN3u3R5Zs1Ohh2Yf+PJ8DcU8x+zKoVhs9YlW30sd8P/Z41l+GdK8feXQ4kudPogWVqz9+DF/f+gJdblYb0FHfgqBo7gBTlFiIuGnjoBwVg7bielz2l2XQVKoYyxUNp0t9Iqh0d31uuVCDI68wXTYTFmXBPzwYPcEVM8bYzlbbSRSOddFADu1H/AJuLylXguIda6kCqZjlXWRoYw8ERo48WYjvvDyGK3yxBMr5S2hBxZ2Rm196Ju1B1LZvFyJX3wO7yYT2ow4bJmlyGssY0lfYdFrOuCM2g/M3F4U5l0X5Ygk9Q7S0tQB2m9sAaJ3NTld317X6gcbV7sL4W3CuvsLjeT/Qu+7xJJ8yvdfaDKvRgMZPndstxP/zNeeWDC5Y1K1wN+XgURR9L1kNOthMRp/GGPEFwmCncCjwD/RJfI1LoQ9A/++p4YxVr6M1zqLQCPB9YFc4uIJKD8G0EmdOQNLSiSjd5YxF0V7XzBBU7DY7eG72jAmMDEHqoqkMQaX7/jMDhchPinF3L8Tpt53xDboHmUtb7r0LYGt5HYLjnWuiTYUVrDr+v+2Zo+jmPRU2PgHXvPuY19cCgJCMOEb8FNW5i4iZyIyqqipgbsinHB3tdu+lgUCn06GhgWnEFh8fD747A8hBxNVIzepGJcvj8xG8+Fo0vP8WADjsXFzWiYMXLPVtJ13obGvlFFQsGqeK1tUIEABE0bEwlBT8Vq+d5a0CONwou2b64qiRPc8yXYQdu9n9UhUXkpFOoU57Krf3wfj6iDjWOahY2jW9HlQMJU6tqnLpck4hBQBMLjZBXEjik+gBwKxqgGRkXK/64RZ7771qOttaUPff1xh5wvAIRN3xgNtzXO+f7pt79ote3FM+60Mv6e89NZwxljsnEf4TfbPXz6COAGU5p/HJNY/h4g8n2QHMfkNTwTTwEwcx1wU/u+EJ/LzhE2hVreCie767iKwAe8nFrDZ49DjqTvq1V3osT5juXewUADjzqTNAj91mR/7HzMiFIrmU9uoJimEaCDfmlaHmhPtAZcZ2HU59sBe6ZucgFZrKDPhzevNedOqdLrhWUyfy3v6GUSc007fagJycHMybN4/x1+bBBXcwcXU1FHsYMOTTncJp6/5v0eoSOyVoyhU+6RsX7ae4A891nHTG3nHVqACAKMqpwehwc377KacrvsgLTxPXtXRzY++2zuBRFAInTwfQ5YnBNiL3BRKXbRI0HB5cPeHq7SEM4Tbmt2o70HHkR4/tiF0EtZa9X/e6H65QUqdhvavbt7fY9Hq05x5m/OlOn+zxvC53W8BhqzUQ9Pae8kUfekt/7ylfwP9taZXWoPYR160auty3B5pBFVTsNjsackvx9W0v4t1pa3Hgic04/4XzR9u+5jk0nWF6lijjmZbXFp0Rx1/9Cm9PuAdf3/MSjv3vK7QUVgMA8t//Dnv/xIwnEDEuCe7wC2Mvy+z96xvI+3Avyn7KQ9lPeSjPOe1WqAofk4jQzFjOsnH3Luoxdoorp97cjZ///SkqDufj+/WbcPEbZmyW9Judy1dho+IQdQVzDXXnqudx4r3daC6thqG1HS2lNSj7KQ85L23FW6NX48d/vMdY3hl7G9PFur2yCV/d8SKqcwtQc/wCdt2/gWVwO37VQq8/z6WC3WJB8f2r0Hboe9gt3J4ldqsV9Vuc8X4k8Ylu2xMGhyBwikOA1Z3Lg7HC4WKomLukV/u69Je2b79iuQla1G209xEABE1iCk7yK5xCVvNXn7Hcn21mE1q+/sJZ/0ruoHWuuLotag7/0GuXyUCX4HmDNcgoXEKfN37xIb2/ChdWvQ5tPx1guK27xsjRnT3FPslug+qLj1leZd1xdQVv3buTFfemC5vR6HCd94Dr/k7a/MEbrEOvW0EfN7y/yWNsD7OqAe0nfnVb3kVv7ylf9KG39Pee8gWuS6v60hIPNT3jKngFjPF+ct4bhsxGpb2yCWfe28fIc434CgCXP3mLx+inF785zhjQuw+sIrkUGdfOcHu+X2gQ/CIVjJgk9UeLWAaxXXv9cJG5ej4OPvQ2Kz/Ni9gp3Tn+yg4cxw7OsrE3z6OPeXweZj9zBz6a9TCdZ1YbkPPEh8iBd0HVQpJjMO6uhTj9jnPpqibnPL7MeYqz/qibpnu1weGlht1uh6muCjX/eR4NH26CcvE1EEfHOrQFVgtM1ZVo2vYJQ22smOHeIBYAFHMX0XYpdJ4HI1pfYG5qQNmTDyPqjvshCo+CqaYadZteowfH4MXXMlwZASDwskmQxCXBWFEKY3U5yp/8GyLX3ANR5AiYVQ1Qbd0CfaEjLIAoNAJBl8/ouSM8HkKvu5WODHvxb/cjeOlyCBWOWTHl54+A8e63ugiadAW6nurW/d9AOZ87vstAIlQoEXH7WjS859i/vmTtKoSvvhcBmVkQKkNg1WlhVtWj41Qu7WYqnzYLvN+WpcSRI2h7n47jv6DqtRegmDEX0vgkmBtVaN75Ob2JmydE4REIv/VOeh+ZssceRPjNdyBgQjaEIWHo1KhhqiyD6qPNsFk6ETxnkce2uvcpcNIVtIcGj+LDb/TAz4YDsyYhIHsqOo7/AmNFKYofWIXINfdBkpAMQUAgOtWtMNXVQvPTAbT/mgP/8ZN63hyxl/eUT/rQS/p7T/kCaWo6NId/AABUPr8eoctvhTgqGjyBY8wVR0T16NJvqq2ml4vlcxb7LFL1oAoqYn9pz5V+I+W6qci+4ypWvixCAZzpOZ6HSC7F1e8/yght3x0+RWHmC3fgm9Ub3NbpsZ/zp+AgmIKKIiUSEWPcz7q74xepgCw0kKVN6uKyPy9j2K8ADs+pea8/gP1/erP3nf6NqetuhKZahfLvOGZ9LkRPT8eMx27r83UuFSxtLYzNxbiI+euTEHWz7ehOwNgsxuZlotAIyEb1buff/iKJiYfxYhHK/sGO+SKJiUfY9TezT+LxMeKBh1Hx5F9hNehgKCngPJ+S+mHEnx/12hMldNlyaHIOwNzUAHNTAxredYbuF0eNRICH8N18iQQhy1ageeenMF4sgrGmCpLokW7rDxQhi66Gub4GrXsd8ZJU7/8P3i488UViRN23DtWvOPbv0vy4n7UJHSX1Q9CMuXT7bvux9HqY6mvpvX5Un7wL1SfsrS968tTiiyWIuON+1P4WSp6rT77alHDEvetQbTBAdy4PlrYW+nvpD729p3zRh97Sn3vKFyjnLULrri9hbnLE96l/m7ka4c2mhJpfXPYv86Gh8qAu/URnj8baog+wZMvDyFg5GxETmcsyIrkUo26chqUfPIIlG9eBL2A/NNdtWY/bftiAyx9fgYRFWQiMZUp8YeMTMPmR5Vjz00bEZKexzu9OytxJuO2HDRizZi4ip6SyIucCcB/NEoBU7o/IKczgWGNWzuuV0Z8sNBDXfLAeYePZgeGufG41pj9yC+d5GdfOwF0n/4eU6zwbMMXMyMCsl+5k7X0kCfLDsrf/jhnPrWFtC7537Q4AACAASURBVAA4fo/Ln7wF13/8BGQh7m193MHvpQudgMNlj/KxWyZfIEDs4y84lmak7pdmAidPR9J/3vNqjxQeRSHIZRlFsfBqj/cQrwdXRdfBg+fqidOtTVeXxfhn/w1pMvv+D5w8HQn/eh1CNwObLDkVKW99CP/x3AHG/DLGI+k/m90aiHJBBQQiaeO7CL32FsYmcI4+9/z7Khc6jZBbvv3K6+u6Gt33dgDmCQQYcc+fEff0v1kbuLkSdPlMxDz8JGvmK58+GzEPP8l5T0kSUxH/4uvwG+0UXt0FyeKLxIj50yOIffwFxiaErkiT0xB5N1ug7E7wnEVI3rgFwQuXcQs2nt5ZXN+fl9+pUBmC+KdfRuTdf3b7jFFSPwQvvhbhN630qs3e3lP96cOAPZ/9vKfgoW3OfDdee3RVsQTJb76P6L+shzQ5jfW98Ho432o00Jsv+mWMhyxllMf6/YFnt/t4IawHVGcvYuuCRwEAD9V+2ac2vr7nJVz85jhmPH87JgyyHYWmphHvTmJavt91chMCIty7JRft+QXf3vUqnQ7NjMVtex1anY6GVjSXVME/TIHgxGhQHMIaFzarFR0NrWivbUKn3giRnxTS4ED4hytYweQ4sdvRoWpDa5nDE0ERF4nASOWgeFkMF+xWCzqbm2FRt8Ki7QCPoiBUhkKoDAUl68UmW3Ybih9YQwd1Sn3nM4+bB/oSi0YNY0U5eCIhJHEJvdoszGYywlRbg862FgjlCohGxICSeK8VHUhUn2xB4xeOZc3UTZ+63SvJV1gNepgb6tDZ2gK+SAyBIhii0LAeXYZtZvNv5zWDL5FCEhvfrw3brHo9zPU16FS3gZLJIAwJG7J7q69YNGqYG+pg0XaA8vOHUKGEMCR0UGPFDIc+9PWeGi407dpOL2Ul/XsTpIkpPrvWkMZRGWgGe0y12+ycsVM8CSk9ERAR3Kfz+RTFuWO01/B4fb727wUeJYAoPKLfg6D2TD4tpARkTx3SgUQQJIf/2L4ZuPHFEkgTkiCFe4P0wSJk2Q1o2b0dVoMOjTs+RfR963o+aQChpDJI45Mgje/dd8EXiSAZGTdgrsWUTAZpYgqGRlwcGARBcgiCeq+h/b31oa/31HDAatCj6bdYQfI5i30qpADDQVAZSOliECSVutPFKPr2F+ibNCj//iQjaBoAZN09eLEyCMOPzrYW1G92rpcHL7zaQ22Ct1AyPyRu+C8s7Wrwh0irQyAQHPAoAWKfdARnlcTE+fx6vwtBpWst2pcW0l00F1Uh761vOcti543zyi6G8PvCom5Dw9b30NncBG2ec1dqSWIqAsZdNoQ9+30hHhED8YiYoe4GgfCHhy8S+cRLzB1DLqiEjY7Dn8vcby7oDYtffwh4zQaeYOgimCpHR2PRqw8O2fUJQ4dF14G275nB8SQx8Yh/8kWPRrQEAoFA6JkhF1R4fB4dcbWvUAIK8NLotL/IYyMw6qbpdFoi90f4mESMWjzV612aAyKVSL7GuVlhUOylZQxHYCKQ+SPocoeXjyBYCVlaJgIyx4PyweZcBAKB8EdjyL1+CAQCgUAgENxB9NIEAoFAIBCGLURQIRAIBAKBMGwhggqBQCAQCIRhCxFUCAQCgUAgDFuIoEIgEAgEAmHYQgQVAoFAIBAIwxYiqBAIBAKBQBi2EEGFQCAQCATCsIUIKgQCgUAgEIYtRFAhEAgEAoEwbCGCCoFAIBAIhGHLoG5K2Kk3Ql2totOUSIjg+KjB7AJhgNFqtTAajax8Ho+H4OBg8Hi8Httoa2uD1Wpl5QuFQgQFBQ1IPwkEAoFwaTKogkrtqSLsuPGfdFokl2Lt+Q8HswuEAaakpAS1tbWcZQsWLIBA0PMtduzYMVgsFla+QqHA5Zdf3u8+EggEAuHShSz9EPoFRVH9bsMbYYZAIBAIf0zICEHoF5mZmcjMzKTTJ06cQENDQ6/amDNnDiP9zTffDEjfCAQCgXDpQzQqBAKBQCAQhi1EUCEQCAQCgTBsGXZLP9W5BTB16Bl5EWMS4R+mYNVtLqlG04VKNBdXoaOuGfLYCCiToxGWngBFbASrfs3xCzC26+h0QKQS4WnxrHo2ixVlP+Ux8sLTExAQEcyq29jYiMLCQjrN4/EwderUAbHd8ITZbEZraysAIDAwEDKZDFqtFq2trWhtbYVAIEBgYCBGjBjhti9qtRpmsxk8Hg+hoaEe6wBAWFiYbz4MgUAgEAhuGFaCypnPD+DAQ5sYeVFXjMY17z7KyOvUG5Hz4sfIf3ef27Ym/e16TL7vWlBiIZ134eufcXbL93Q6MDYUdx55E+jmQlt7qgi7Vv6LkXfLdy9yCionT57E2rVrGXm5ublQKpVu+zYQdHR04MSJEwCAtLQ0WCwWFBcXs+qVlZVh4sSJkMlkrLKCggJa2FmyZAnndVzrLF682Ct3YwKBQCAQBophs/RTvO9XlpASPT0d1777KMT+zkHW0NaOjxc/4lFIAYBjL2/D5zc9CZvFGZ8j4/oZjDrtlU1QnS9nnVuy7xgjrRwdjfCMBG8/yqBTXFxMCykymYwhlGi1WobGh0AgEAiES4lhIahU/nIG39z+b0Ze9PR0XPPuoxD5MzUBR9/cgbbiekZeaGYsRs7ORHcacktxdvsPdDpybDIUKZGMOkV7jzLSVosVBZ8dYuRl3DqHpXUZTlgsFvj7+2PWrFn03+TJk+nyuro66PV6Dy0QCAQCgTA8GXJBpeFMKbYvf5aRN3J2Jq5591EIZRJGfnNpNU7/91tG3pXPrcZte17G9R8+gfvOvovx9y9mlP/8zEcwa38bpHk8jLt9EaP8zPv7YHOJilp74gLMagOjTuqiqX36bIPJZZddxtCkhISEYOTIkXRaq9UORbcIBAKBQOgXQyqomNUGbFvxDCMvdt44LNv0CEtIAYCyH04y0iK5FONunkdrO6TBgbjsjqWsa7SW1dHp1EVTWOW1J4vodMmeXxnlCYuyOA15u5DL5cjKymL8iUQit/V9QUhICPz9/Vn5rnYyXGHuCQQCgUAY7gy5MW137cWSjesgkIo567aVMZd8hFIJ8rbuA+x2AID9t//d0dQ0IiIzCQAgUwZh1I3TUPj5z3R50e5fEDMxDdZOCy5sz2Gcm3bDTI/9nzJlCqZMmeKxjq8JCAjgzBeLnd9jZ2fnYHWHQCAQCIQBY8gFle7kf7ofE+9exlnWUlTFSOvq25Dz+Ac9tqmuUjHS6dfPZAgqZ97bhxnrV6L2VCFDcBLJpUiYNr433R8SXAUSV/h8p8LMnRBHIBAIBMJwZshtVLpz+OmtaKuo5yzrqG7pU5tmLVNrEzMpDX6RzOWcyl/Oorjbsk/aTTMhkAzuMk5fcBVICAQCgUD4PTHkGpVRN02HSa1F+Xen6LzvH9uE5VufAo/P9LQJTh0BXX0bnfaLVCBsLDtgW3cUiVGMNJ+iMP7uRTj89FY679znB1F9+ByjXtrV03r1WX6P2Gy2oe4CgUAgEP7ADKmgIpJLseCl+9Fe18wQVGpyzuP8Vz8i4zqmfYgyJQbVPzqFifRbZuGKdTf16dqjrrqCIahc/OY4o1yREomIMYk9tqPT6Vib8MXHx18SWg7XXYutVitnBNveegu5BoTrr5BjsVj6dT6BQCAQLn2GfDTlUxTkMeGY/PcbGPn7H3wLuiY1I0+RwNSMnN68B4bWdrdtq6tVyH17J2dZYGQIEpdkuz03c+V8r2Kn5OTkYN68eYy/tra2Hs8bDrh6J5lMJla5Xq/vtbAglUrp4756GnV5MBkMBmJbQyAQCH9whlxQ6SL7zqtYdiOHnt3CSKcunAyR3DkQmtUGfHbd4yja8wvUlQ3Qt2igKihH8f5j+ObBV/He5LUMrUl3Mm6c7basuxvz7xFXoaK+nm0XVFpa2us2/fycsVxqa2v71K8uQcVisaCxsbFPbRAIBALh98GQ26h0IZRJMOPZ1fj2zlfpvOLtv+DisulInJUFAJCFyDH9yZWMUPttxfX49q5XuzfnFXHTxkIkl7JcpBMWZcE/nL2vz++N0NBQlJSUAAAuXLgAgYBCSEgoOjs7UVFRgZqaml63GR4egbNnHctzFy9ehNlsRnBwML0UFhwczBCQuIiJiaGX044fP47k5GRGnJiIiAifb/pIIBAIhOHBsNGoAEDK/CmInp7OyDvwyCbGbsoZ18/EuLsXDsj1KKEA4+9azMpPW+45dsrvheDgYMjlcjp99uw5HDp0CIcPH0ZNTQ2Cg4MRGBjYqzYlEgnS052/YXV1NfLz85GXl4e8vDxoNJoe2wgPD0dEhHP365KSEvr8vLw8EhOGQCAQ/kAMqqDC62ZgKpRKupXzMOOp1Yw8XX0bTry7m07zKQqznrodK/Y8j4iJSR6vN+rGaVi8eZ3HOtETR7PyEqZ7HzvF1SC1i8GY7bsarbrb0dibOtnZ2QgOZmuPwsLCkJ2d3acou/Hx8Zg0aRLCwsI4vx9vyMrKQkZGBmffyA7OBAKB8MeBZ7/ErRWtpk5o6prQXtsEm8UKqdwfUkUgAiKVoETCHs8/+ORmxk7M4+5dhFlPrPFll4cddrsdBoMBOp0OFEUhKCiILK0QCAQCYVgwbGxU+golFiI4PgrB8VE9V+5GY2EFQ0gBgPRl0weqa5cMPB4PMpmMsakhgUAgEAjDgUteUOkth1/9DOZ2PRpOl6Ahl+nVEj09HeFexE4hEAgEAoEwOPzhBJXcDdvdll3xyIpB7AmBQCAQCISeGFZeP0PJnFfuQdT41KHuBoFAIBAIBBf+cBqVzNvnw6x3xE3hUxQU8RFInJuNkKSYIe4ZgUAgEAiE7lzyXj8EAoFAIBB+v5ClHwKBQCAQCMMWIqgQCAQCgUAYthBBhUAgEAgEwrCFCCoEAoFAIBCGLURQIRAIBAKBMGwhggqBQCAQCIRhCxFUCAQCgUAgDFuIoEIgEAgEAmHYQgQVAoFAIBAIwxYiqBAIBAKBQBi2/OH2+iEMDoWFhdi/fz/q6urQ1NSEjo4OPP/880hKShrqrhEIBAKhj6xcuRIAEBERgYiICKSnp2P27NkQCHwnThBBhTDgbNy4Ef/5z39Y+Vqtdgh6QyAMPbbOTpiqyum0JC4RPIoawh4RCIBZ1QCrth0AIAhSQBgS2uM5R44cYeWNHTsWX375JSgf3dNkU0LCgFJXV4dp06bR6WuuuQZjx46FXC7HtGnTIJfLh7B3wxe9Xo/S0lLOMqFQCKVSCaVS6bMXAcG3GKsqUPLgGjo9est2CBTBQ9ijSwd9UQE61Wp2AQ8QKpQQR0SCCggc/I79Dqh+5Tmocw4AAJRLlyPq9vt7PGffvn3QaDSoqqrCf//7Xzr/lVdewdVXX+2TfhKNCmFAKS4upo9XrVqFJ5980utza2pqcOrUKQDAuHHjMHLkyAHv32Bw4MAB6PV6SKVSzJ0716tzGhsbcezYsR7rhYSEYMaMGVAoFP3tJuESonHbVlg0alD+AQi/ceVQd6dPWPV6qD7dAgCQpaZBfsVMr85TffYhtHmenw1RaATCV9+DoCnTweMT00tfMn/+fPp44sSJWLPGIYCfO3fOZ4IK/4UXXkBDQ4NPGif88aiqqqKPJ06c2Ktzm5uboVKpoFKp0NzcPNBdGzSqqqqgUqkY38VA0dzcjG3btqGysnLA2yYMX9r2fYOW3dvQ+t2uoe5Kn7EZ9GjZvQ0tu7dBe/b0gLZtbmpA9ctPo/rf/wTIIsGgkZmZSR/X1NT47DqC48ePIy8vD3fffTfmzJnjswsR/hh0dnbSx0FBQUPYk0sXkUiEBQsWAADsdjs0Gg0qKioYgs8PP/yAW265BSKRaKi6SSAMOjEPPQ5pUioAh+Bjqq9F01efw3ixCACgOXIIbZdNgWKmd5pMQv8ICAigj1taWnx2HT4AWCwWvPXWW3jttdeg5loLJBD6ALGn6BsCgQDh4eEIDw9HREQEUlNTMX/+fMZEwmKxoKCgYAh7SSAMPqLwSIijoiGOioY0MQXyK2Yi6aU3ETjxCrpO05cfD2EP/1jwB2mZjWGjkpOTg/z8fNx1112YOnXqgF+sqagSmpomOi2PDYcyIRpNRZWoOnoWjecrEJoWi8ixKYjOSgV4PM52TB16VOc6X9J8io+EGRNgMZqhOl+OmhMX0FJUBVmoHFETUpBw5QQIJOyZp6lDj/r8EjQVVaL5QhWkwYEIGT0SoamxCE+L57y21dSJ8sP5jLyEGeNh1hpRfbwA1YfPAhQPURNSETMpDX4hno1HzToDLh48CXVlA9prm2A1d0IWIodUGYjw9HhEjk2GOEDmuQ2zGb/++isjLz09HUql0uN5Q41arUZ1dTWddlUd1tTUQCgUMurzeDxkZGR4bLO6uhr19fVobGyEyWSCUqlEREQEkpOTvRKcVCoViouLodFooNfrIRaL4ecnQ3h4BJKSkiCVSlnnFBUVwWw202mbzQbAoQ05e/Ysq354eDjCwsJ67Et34uPjoVAo0NbWBgBul8dUKhUaGxsBAImJiZDJZGhsbMS5c+eg0Whgt9sRGBiI0aNHY8SIEZxtqNVqVFRUoKmpCe3t7QgICEBYWBhiY2M92seUlJTAaDRCIBBg9OjRaGxsRHl5Oerq6iAWixEVFYWEhAQEBvZs/KjVauk+d3R0gKIoyGQyKBQKpKSkeGWY3djYiMLCQjrN4/EwderUYS9Ea/PzYDUZ6LRV2wEAsBuN0OT+wqovGRkHcUSU2/ZsnZ0wlFyAsbIChoqLAABpQjKkCcmQJad616dz+dCXFqJT1QCbTgtKroAgWAm/1DTIUkaDRzFNHm1mMzpOn3B+Bk0bfWyureb8HP7pmaD8/L3qTxc8ikL4qrvQnnsYAGCqq4LNbAJfJGbV1RWeh6VdAx5FITBrkiOv4Ay0+adgUtWDksogHjES8itmQCDnvs+NVRUwlJXCWHERlg4NxNEjIRkZD7/RGaBkfpzn2K0WtJ/MBQCIQkIhjU+CvrQYugvnYCgrhmTESEiTUuCXNgZ8saTHz2yqrUZH3gl0NqvQ2dwEKiDQYVgclwD/MeNAST2PGZcaLGNajUaDDRs2YMGCBVi5ciUkkp6/NG85s/V75L+7j05f9pdlEIiE+PWlL+m8rlfKuHsXYcY/VoLP8UJpK6/DrpX/YuTdk/8OPl36D7RXNjHyTwGY8MBVmPEPpgFazfEL+Pa+V6GrbwMXabfMxMwnV0Psz/zBdS0a1rVv+f4lfLn8KZjVzhfLaeyBSC7FDTueRVhqLOc1znx+ADnPfMg4j4vVh/+D4Hj3L6Hm5mbaoKmLd955B7NmzfLYri/ojRNZWVkZTp48yVnWZavSnbS0NE4pXq/XY8+ePfQg3kVraytKSkpw7NgxXHXVVQgO5va0sFgs2L17t9vBv7y8Ar/++iuWLl2K8PBwRtnhw4dp4cQVu93OEiABICkpqU+CCgCEhobSn9Gd9vPs2bMoL3e4wgYGBqC+voElMLW0tKC8vByTJk1irDMDwOnTp3H8+HFGXmtrKyorK3H8+HGMHz8el112Gee1Dx8+DIvFAh6PB4vFwvr8tbW1OHHiBObMmYO4uDi3n/Pnn39mCBiuVFVVIT8/32M/ujh58iTWrl3LyMvNzR32Qnz1a8/B0sZWpVsNOlQ9v56VH776PoQtu4GzLWNtFapfeZ5eHumi60lRzF+KqNvvcztAmptUqP73P6EvPOe2vwKFEqO3bGPkWdStnH0FAN25POjO5bHyE//1JmSpaW6v4w5xBFPgNqsaIIlhv3cbPnwH+gLHRHPMVwdR/cYGqA/uZdWr37wRozZ/wXDXtVutaPziIzR+/gFnH0ShERj59/+jl6ZcsXZo6e8i6Mq5ECnD0LRjK12u+e2/JDEV8Y8/79YjzNbZibq3N6Lt+284y7tIeesjiKOiPdYZCFzf9xaLxWfXcev189133+H06dO46667MH78eJ9c/MRrO92Wnf7fHvAFFGY85p2F+1erX2AJKe44++VBfP+X/3msU7D1EGoOn8PNu1+ATOnZ1qK7kNKFWW3Ax7Mexh25byFoBNM/vfDbX3DgoU1e9ddq7uy50jChayYPgFP74IpYLGYECbJarfSNz+PxvJ71trW1YceOHQxhQSgUgqIoGI1GAA6t044dO3D99ddzzsT37t3LEFJEIhGkUilMJhNMJhPdL1cbHNfP4Zrv+sByBUHq6XvxhMlk6lX9ysoqFBUVuS131QQBjhgJrktKPB4PIpEIZrOZ/g7y8vLQ3t7uURB2FdJ4PB7EYjH9W9jtdnz//feYN28uYmPjWOfm5+czhBSKouDn5wer1QqDwUD/zr39Li4lxNFxoKTO2bmpzmmfJI5ie8MJ/Lk1VB35p1Dx1F8ZebK0sbCZjLTg0rZvF0yVZUh47jVWbBe71YrK5x6HscLpOu83JguCwECYGuroNriEKr5IzOir1aBj1OP6HDwxWwviDTZz7++F5u92cwopdJsW5rNeteFZtB/9iU4LFEqIwiNpAc7c1IDSh+9FwnP/gV86U/h3RfPT9/SxKDQClDwYhhLHM2e8WISSh+5GypsfcGpnGj56hyGkSJPTIAoLh0WjhvFiMawGnaPvffg++oLrpLFrcuQLPLonNzQ04Nlnn8WyZcvoaHS+QiSXsgb7U2/sxqR7l0Gq6FlN3JhX5tV19M1qTiGF6/rtlU349a0dmPXEGlZ9V7rO42oDAM5+cRBXrLuJkXfs1S8Zab9IBeLnTkBQXAS0tc1oLKhA/VH3A8xwxGq14qefnA9yaKjn4EHp6elIT0+n064z+QkTJmDChAleXffgwYP04CWTybBo0SJ6ecJsNmPv3r1obGyE3W7HwYMHcd111zHON5lMtOcbj8fDggULEB3NnI2UlJQgLy+P03j11ltvZaTfe+89WK1W8Pl8lqarP1itVtTW1tLpnr5fALSQEh0djYkTJyI4OBg2mw0NDQ04fPgweC7LqwaDARcuXKDT8fHxmD17Nl0nJyeHbu/ixYuYOHEi/P09q+nj4uIwZ84c8Hg8WK1WfP3117TR3S+/HOUUVFy1P1xaE5VKhePHj0Mmu3TU28KQUIxY+3c6ze9heSPh2Q2MdNFdK2BuaoBAoUTKW9wz+u7YzCbUvfEynQ5ZdiPCV6ymNSedzY2oeuV56AvyoS88B/VPB6CYNZ/Rhr64gBZSpMlpiH/ieVCBzombrbMT7ccOQ33oe3RHIFcw+trZ0ozCO5YDcGhxou9b59Xn8IaOPKYGUBzFvaTpSv2m1wAA0X9Zj4Dxl0EQJIfNbIKu4Cwa3t8EHs85COuLLjCElLinXkLA+GwAju+59o0NdDySho/eQeILG92aLnQR++S/EDjB4RlpUbeh/P8egbGiFJa2FrQe+A6hS5nvKavRgJZdjnGDkvoh/vnXII13ifRtt0NXcBYte3Z6tXwEAIp5S+CXmQUAnBoob0hPT8f58+fR3t6OsrIyJCQk9KkdT3gVR2Xnzp3Iz8/H/fffj8TExAHtQNQVo3HN5kchkklw6qO9+Gn9+4zygp0/I2vNYq/aipmRgcv/tgLKpGgIxCJoqlXIe38v4HK//PrGDtZ51335JGKnjoHV1In96zfhwqfOG/L0//Ygc8UchCTFeLz2ki0PI2XuRHSo2rBtxf+hrbje2cbmPZh87zUQSB2zBbNWj5YLTFeuZVv+jvAxzO+2qagSJ9/9FkLZwC2/+QqdToeNGzfSQcsmTpzY5+WN3lBWVkYvhQgEAixfvpwhTIhEIixduhQfffQRTCYTWltbUV9fj8jISLpOU5OL3ZRczhJSACA5ORnJyck+/CSeMRgM+O677xjamrg4714smZmZmDRpEp2mKAojRozAjTfeyKiXm5tLa03kcjnLC3D69OlobW2lv6+jR496jBPj7+/PKKcoCsuWLcP7778Pq9UKrVaL2tpalp2MweAQ9nk8HufSTnh4OJYsWeLNRx82UDI/BM9ZMKjXbN6zE+YmhwCumL8UkavvZZQLQ8IQ+8hTKL7vNlgNOtS/8zrkM+Yy4pAYK5yz5OD5VzGEFADgC4WQXzHT65govkBXcAZ1rzsFsoCsKSx7GXckb9wCycg4Os0XiREw7jIEvJrFEDQav/iIPh7xwMO0kNJ1TvSfH4WhtBimuiroC89Be+Y0/Me6X4mIuH0tLaQADqEu9rFnUXTPCgBA06dboFxwFfgu7zJzQx197D/pcqaQAgA8HvzSMz1qc7rjnzEWyBjrdX0uli1bhvPnzwMA1q9fjxdffBGxsX0Tetzh1a+ZkZGBNWvWID6e28C0PyzY8ABtLJq1ejGKvznK0CTUnSzySlBJXJKNJRvXgRI7DTCDE0Zg9jN3wma10nmn32Gq+q546hbETh0DAKDEQsx7/h5c3JvL0IyU/5TnUVDJWDkbKfMcA0FARDBmv3A3tl33NF1uVhvQWtVA26pw2d1c2H0EQbERkAQ61X2hqbFY8FLPkQLFYjGysrIYeYMRAXb79u344IMP6PgnXSxYsACPPfbYoFiEu2oAsrKyODUePB4PEyZMwNGjRwE47CRcBRVXo121Wg2r1TqkxpZGoxF79uwB4DDM1Wq10Gq1jPVgpVLJqY3ojkAgQHZ2do/1AKC+3ilcjx3L/fKaMGEC9u3bx6rPBZfhM5/PR1xcHC5edBh0VlRUsAQVHo8Hu90Ou93OKcj0Brlczno2/igu3ZqDTnvAiBWrOesI5AooFl6N5h2fwGrQwdzYwDDKdZ2Za08fH3RhqztNO7+AKNzRP6uuA8aKMnrZpIuIVXd71ZZy6XKGkMLARUix22zoOHmUTgddPoNdnaIQvGgZ6jdvBODQRHkSVBTT2cumovAI+I/Lhvb0cVgNOpjqayCNdWonXI2DtceOwG6xgOfD/XW85eabb4Zer8err76K3NxczJo1C4GBgYiJicGoUaPw0ksv9fsaPX7KFStWYPny5f2+EBcRE5Mgj2EaJqZdIxVRjQAAIABJREFUfyVDUNFUsA0quci+bxlDSHGlSzAwtLazylIXMb2bKJEQmavm48R/nPYz6nLPAfFSFk9hpKOzR7OWgfSNbcBvgopAKkZgbCjDpubUm7tx6s3dSLluKuJnTkDMpHQERoV4vG4XSqUSX3zxhVd1B5KWlhZaku7innvuwcqVKxERETEofdBoNPTxyZMnkZ+fz1nPVRPRPcBhSIjze7bb7fj444+RkZGB2NhYRtlgYbPZGEs83VEoFFi4cKFXbcXHx3stMHZpMgC4nRG5apu47HVciYnhFu6jo6NpQaWjo4NV7u/vT+fv27cPycnJiI+PR2RkZK8FyClTpmDKlCk9V/ydYbdaYax2akOqNjzrtq6p1mn/YqyqYAgqEhdhWHP4B1QJBJBPmwVZUioEQYO/HYbr8kt3BAolRjzwsHvhoxvyy73TAlnbne8Y2Sj3nj2uRsDmRvdjhjhqpFuPIr+0TGhPO5axLK0tgIugIgpzvlOtBh3KHl8H5aJlkKWmQxQW3uNSk6+QSCRYtWoVwsLC8Nprr0GlUqG9vZ01NvQHt4JKfHw87rzzTowePXrALtYdRSJ7phQYxVx3V5d7nrXRbcW594rpor2WbWwbEMm2/pfHMoWnlhLPEfcCuxnK8ikK8vhIht2MtonpoTH54Ruw/09vstoq3v4Lirc73PZiZmTgyidWIWxUnMfrDxWzZ8/GyJEj0d7ejpMnT2Lbtm3YtGkTNm3ahNdffx2LFi3yeR9cB1eLxeKV5XmXUWcXFEUhMzMTZ86cAeCwazl16hROnToFHo+HwMBApKSkYMyYMYOmaXG1HaEoClKpFAEBARg7dizn0pQ7vNWs2e12xncndmPUyOfzwefzYbPZYLPZ0NnZyXIj78Kd/Yqfn/NFz7VR5bRp02iNktVqRWFhIW1cK5PJEBcXh/Hjx19SNiqDTWcz813H5WHDhbWb4ChNTEHQjHnQ/LgfAKD5cT99LAqNQMDkKxA09Ur4jfYcNmAg6TIy5kkkEEVGQxQVDVnyKChmzuV0SXaHNxvwAUBnq9PIXhjifjlb4LIsZq53P9EQBLv3OKNcBJjOFuZvyBMIMOJPj6L29RcBAPrCc7QhLyX1g3/WJARePgNBE6cO6oaXlZWVWLZsGdrbHYqAiRMnYt68eYiMjBywoJ+cgspgGM8CYLn+AgBfwJz99eS624XIr2c7DrOBbQnNtQwj6tYvQ6PnIHhCKfvhoCTMl7e5g/k50q+eDn2LBof/z31wouofz+HjH/+G5TufRkx27132fE1iYiJts3TDDTdg+vTpePDBBwE41ipnzZo1oO7tXLh6+owePdorQYLLNXXSpEkICAjAiRMnGN4kXZFhjx8/jnPnzuH666/3+WeSyWS45ZZbBqQtb+KVAEztSE8amC5BBXAIfe4EFXfbvrv+RlyeOyNGjMBVV12FnJwchsYMcLihFxQUoLCwEIsXLx40zd2lhlXnFDgECiXCb/bOqFs2ij0xjfnTI5CljEbLV5/TNi+Aw8ulKyR+6LW3IGLlnf3veA/01X2ZC3daje5YdTr6mO9GmwIwl8msGvdjBuUf4LbM1bbGomVrG4Nnz4cwOBiNX26l3awBh4ZFc/gHaA7/gNYxWYj9xzODFkvlzTffpIWUG2+8Ec8+++yAT+gYb5KIiAifuiN3R9vIjmFi0jEHdL9I724mStjzWp0smP3SthjNrGBw+mbmy1GeEAlPGNQdCIhgDn7GFuYykyyEKVnyKD4m3nU10q+5EsV7jqLs0ClU7ufe/+KHx97BqgOveuzDcGDx4sX44IMPcPLkSbS3t0OlavDKjqI/CAQCWhOQmZnp9cDMRVpaGtLS0qBWq1FXV4fKykrU19fD+puNk8FgQE5ODubNmzcgfR8MKMq7ZR+RSETbhthsNtjtdoZWxxWri82Xq3akOwaDgdMV29Ul2p2rdkREBG644QYYDAbU1taiuroaVVVV9Lk2mw379u3DqlWrvPp8fzSEwU5tgcA/EMFzvXNI4IJHUQhZtAwhC6+Gqb4WhvJSaM/koT3nIO0O27RjK/zGTkDAWO889YYD3m5e6CrQWNXccbcAwKJzvvOFEe7HjM4W9/uY2Qx6Zxtybs1LwPhsBIzPhqWtFfryUujPn4Um5wAtROrOnkTz118i/KbBeTYOHz5MH69bt84nWmd6dPdFgLeeqM8tgs1qZWg1Gs8xfbEVyT0v6XgLl81HU1ElIscyvTka8kuYfeBYonKlsaCCsTxjUHcwvH4AwC+MWwXvFyLH+JULMX7lQljNnajPL8WpLXtQ+rUzUFbLhRoYWtsh5RC0AMfAUVFRwciLjIwcEtX45MmT6SBuTU3NfRZUvA0c5+fnR8+6tVptvwSVLuRyOeRyOdLS0mC1WvHjjz+irMyxjOfJduRSRygU0oKAVqtl7OPRhWs8FYFA4FH70tHRwSmIuNqlcF3DFalUiqSkJCQlOTwcCgoKcOTIEbov7e3tHn9znU7Hsknqjd3OpYrAZcnP1ValX/B4dPh6+eUzYF15F2re2EDbjWjzci8pQcVbhErnuOFpScfiEmxS5CFKcGeze7tLS6szzozrdbkQKIIRqJiIwAkTEX7zajTt/AKqj94GALQf+WlQBBW73U47UowcOdKrkAl9gR8UFISHH34Yd99996AKKQCgq2/DxUOn6LSpQ4/Tm/cw6gTGDJyLq1AmQWAs84vM+2AvY7dNdY0KhZ//zKgTnORZUDn93l5YO53r++e/Yht8+YcyNUNtlQ2sXT4pkRDR2aOx6JU/sc7vaHIvyatUKsybN4/xxxURdTBwXZPkitbqCVe7CL1e76GmE9dIs1zh6vsLRVGMWCLe2MB0DYJdmolLBVftiKs3lSuuweDc2bF04S7QXEmJcyLQ2zXstLQ0Rgj/LpWzO7o0YK5/3aMXXwrwf7N/sLS1AHbvnitZmtNzyzWU/UBB+fkj/Nbb6bRZ5dnpgO8itFrbWge8P76CkvnRdjHG6nKY6rhtFtuPOTULwpBwzjqA4zc0XCxmF9ht0Px80NlGD4KKKzyKQth1Kxj9HGx8JaQAAP/VV1/1yb4+3rJ71Us488VBXDx0CjvWPM+ySUmc551rpbdM/AsziE7h5z/jh6e3oOFMKS4eOoVtNzzNKBfJpUhd6NlroDGvDN8++CrKfz6N4+/uQs7jzIBMytHRkI9krqXvuuNf+GDuQzi3/RB0TWpaaLFZrCj7mW34JroEYqn0F9dBy9stw13jbFRVVbFmz67o9XqcOMF+YWu1Wo/X69ofB/Buo0VXTVZVVWWP9YcLo0aNoo/Pnz/PMjru7OxkeFWlpnreI6a0tJRh7Aw4ogi7xq1JS2PaG9hsNpSUlDCWl1zpir/SxR/FoFYc6Zws6UtLPNR0EnrdCvq44f1NsOp1buuaVQ1oP8Ge3BirKz0uVZhqnc9NTzYfrt4yurN5sBq8m4wMBxTzl9LHTV9/yZpkmptUaNnt3EIgaPLlHttr2r2dJXC2nzhGL99Ik9MYvzng8D4ylJfCHRZ1G70UJwr9fdluCQYj3kZPHFjHHc7eL1KBxBkDq0rMuHYG8t7+hhFw7fQ7e1nxVbq48unVPW4KCAClu3JRuiuXsyzrgavB47PX+1su1GD/g2/R6e4uy6758mjfB08bCFxV6j25r3YnJCSEtpPQarXYtu3/2bvv+Kbq9Q/gn4ymO23atOkedAFll71BqCwZigqCyBBRwT3u9aq4xcEV9Seg1wkqqOBkiKzLXqW0ZXWX7j3TNl0Zvz9ye3pOczK6SCrP+/XiRc7MN2na8+T7fb7P2Y3w8HA4OTlBIBBAKBQaFBx0d3dHZGQk0tL031D27NnDDBXIZDLU19ejoqICGRkZTBflsGHDOO0sLCzE8ePHIZFI0LdvX/j7+8PDw4OptMjuGfDzMz8U6ePjwwxHHT58BFFRUfD09GSSS+Vyuckb+1lLdHQ04uLimNlTP/74I8aNGwe5XI6KigqcPXuWGRoSiUQYMmSIyfOp1Wr89NNPGD9+PDw9PVFSUsIM2wD697L9zCC1Wo1jx47hxIkT6NOnD0JCQphqutnZ2UhNTWU+V3Z2dkbv3fR34xgVjZpTRwEAOW+/CK+7l8LeLwACsT6R2d7Hz2AWizRmFFxHjEVt3Bk0Zmcgbe0D8F3xCBz6REDsKkVLdSWaCgtQc/wwlOdOwGXoKEiHj+acQ3nuFEq+/wJu46bAbdI02PsFwM7DE015uai7noTyn9omA0hHmv/C29oeTUM9bqx/Dp5zFsDOQ85MrXUMi7DJG+p5zVuI8t92AtDfcgA6HTxnzIVY6oaG7EwUbG6rJCy7fS4kCtN5jTXHDiJfYg/P2fMhcnBC/fUryP/o7bbnu3uJwXTjhtxs3HjpSThG9IfnzLlwCA2DxEuBlqpKqFKuomJfW0kNt0nGCzF2J2NfKLqbVavF+I6JMlkm/rZ3VkMo7t7EHKFYhFmbn8TvK941e2+gIQ/PQvSCSWbPGTpjGG4cuMS7zW98P/SdaVmPlbH2TH5jpdXmyHcU+8JRWdmx7l2JRILo6GhcvaqfcldVVWVwczy+/ILx48ejurqauc9QRkYGUyG3I5qbm3H58mVmmnJ7YrEYEyZMMHue0aNHIyMjAxqNBlqt1mAYJTw8HFOmWK+SpzECgQBTp07BoUOHodPp0NzcjP/+97+8+02YMMFs75JYLEZzczOOHj3Ku83Ue6nVas3+HK1x001r8Yydhco/dqG5rBjqqgoU/ecjznZjNyX0f/gp5DU0oP5qAtRVFcj74M1OPX/N6f+i5rThZ6GV26TpcBkcY3Q7086lD6I2Tl9+oSH9OvI3cYu1deesnu4klnnAf93zKPhEX7ys6uAeVB3cY7CfQ2AoFPfcb9E5jZ3DbdJ05s7OfBrSryO/XZE7Nnu/IHjNW2hRG7qKfWNUc/lmXWHVjDL/Uf1w92+vGczskbg74u5fX0P4NP5hH0uztY3xigrGsoMbMXAFf9Tp7CvDvG//iakvr+Cdvtxe7DuPoO+iiQbr+y2ehIXbXjKYVQQAg1fMQOBk07UHAicPwMKfX0H4babvEMt3wTA2NbSnscvm79+/v8MR95gxYzB79mx4e3tbnPAoEokwb948TJw40eTrdnNzQ0xMjMF55XI55HK5yecLDAzE3XffbXKWSyuJRIKlS5diyJAhzGwaNr7nYe9ibLaNpdjHs+9XYong4BAsXLjQ6JCKg4MDFixYYPZ2AgKBAPPnz+f9ebi5uWHRokW8SbAikQgBAQFmf45z5sxBUJDhTe3a4zuPNasOd5bQ3gERm79BwJMvwjGiP+eGhYDxn7Odpxyhr70P34eeMDimlcjRGR6z74RikWFJCufogZCOMf5lrbXIWuBjz1v0d9kxOBT9vvkFimVreG9KCKHhz0bA/rLKs70junLt8Jg2E2Hvf8rfbgAeM+YhbOMWs7klbpNjEfLav3l/Hor7ViHoyX/y1kGRKHwgi70DYpnxOixeC+9Hnw0fQeTa9UkFljh0qO0eT+aGgrtCoLuJ2X5H1n+BpC/byjoPf3I+Jj63BNDpUJ6Rj7riCriH+sLd3/um9SBoNRrU5JWiJq8EYkcHeIb5mbwJorKwHF+MeISz7pFrX8HR3RVNtSqUXMuC2N4OXlHBFt2jR93YjJqCMjRW16Gptl5/vwZPNzh7y+DibXvDA+YolUpMmjSJSXIMCgrC0KFD4eHhgeXLl3eoWFlnNTY2ory8HDU1NbCzs4NUKoWHh4dFpdPLy8uhVCrR0NAAoVAId3d3eHh4mE0c/Ttqbm5mqky6urpCoVCYfR++/vprqNVqCAQCPPigvq6GUqlEUVER7Ozs4OfnZ3HSvlKpRFVVFerq6iAUCuHi4gKZTGb2RojEOHVNNZqLC6Guq4XI2QV2Mk/Yyb3MFgjTqdVoKi6EuroK2sYGCB0cYSf3gsTL2+L76vydaGqVaMzPhbaxAXZeCtj7+pl8H9TV1UhevgCAPlAJevIFQKdDU0kRmgrzYecph0NAkGXvpU6H5tISqKsroa6rhUAkgp2HHHbeCogcOn9ndktt3LgR5eXlyMrKYmZ4AsCXX36JyZMn98hz2sYnTCCAPCIQ8gjTN/7rCUKRCLIQX8hCTI8pWsLe1QlBoztWoVHsIIGnmenPvYlUKsWGDRuwdu1aAPoE19xcfYnuOXPm3JRAxcHBAQEBAZ16rtbeFaLvGTJWBr8jpFJpp6aNd/Y4YpzYzb1Tpe8FYjEcAoKAAPO9WLcCkau069V4BQLY+/hxbllg6XEShQ8kCuskzG7dutVg3bJlyzBpkvk0ic6yjUCF/K3MmDEDCQkJiI+PR0VFBUpKSlBbW9uj09cIIYT0vHXr1kGn08HT0xOenp4YOnRol24cagkKVEiPkEqlNpkwSgghpPOeeuqpm/6cf+/yjIQQQgjp1W5qj4rXgFBELGgrniaP6n3jnXZODpzXAABiCf9N2Qi51SgUCtTV1Rm9USEhtyKBvQRu4/Q9zE4Rfc3sTdq7qbN+CCGEEEI6goZ+CCGEEGKzKFAhhBBCiM2iQIUQQgghNosCFUIIIYTYLApUCCGEEGKzKFAhhBBCiM2iQIUQQgghNosCFUIIIYTYLApUCCGEEGKzKFAhhBBCiM2iQIUQQgghNuum3pTQ1um0OjQq66CqUEKrVjPrPcICIBKLrNgy21VXV4fGxkaD9QKBAB4eHhAIBGbPUVVVBY1GY7Dezs4Obm5u3dJOQgghvRMFKgCqc4pxfuuvuPbtUd7ty45/AHl44E1uVe+Qnp6OgoIC3m0zZsyAWGz+I3b+/HmoWYFhK5lMhnHjxnW5jYQQQnqvWz5QUTc2Y/fi16HMKbN2U3olkajrPU1isZg3UCGEEEJu+UAl8+hFClK6YNCgQRg0aBCzfPHiRRQXF3foHNOmTeMs7927t1vaRgghpPe75QOVqhtFnGVnXxlmbXkSsmAf4H/5Fc6elCdBCCGEWMMtH6go87m9KX1mDEfgyP5Wag0hhBBC2KwSqBRfzkBdWTWzLI8MhHugAjX5pShKTEf++WRo1Wq4h/og7LYR8Azz5z1PeXoeypJzUJ6Wi9rCcrgH+8AzIgDe0X30PSI8GiqVKEhIY5Yrswo521Vl1cg4cpGzLnjMANg5OfCer7S0FCkpKcyyQCDA2LFjuyV3w5Tm5mZUVlYCAKRSKZycnFBXV4fKykpUVlZCLBZDKpXC39/faFuqq6vR3NwMgUAALy8vk/sAgLe3d8+8GEIIIcQIqwQq5/5vN7L2xzPLk95cDgA4/tI3Bvueeu17PJz0OZzk7sy6FlUjTrzzHZK+/Mvoc4x6biFGP3InRPZ2nPUl12/gj2XvGj0uc28cMvfGcdaZmvUTHx+PdevWcdZduHABnp6eRp+jO9TW1uLiRX1A1b9/f6jVaqSlpRnsl5WVhZEjR8LJyclg2/Xr15lgZ86cObzPw95n9uzZFk03JoQQQrqLTQz9JHy+z2RCq471uKFKiR/ufAlVaUVG9weA8+/vRs7xRCza9SaEf/MaKGlpacysmdaARKVSAdDXOUlJScGwYcOs1j5CCCGks2yiMm1HZt2c3fyLQZDiNSgYQbcNMti3+EIGrvzMrY3SmaBF2MPDOF2lVqvh4uKCqVOnMv9Gjx7NbC8sLGQCF0IIIaQ3sYkelVa3ffAQgkcPhFuANxpr6pB/KRXH13+N1sGG8ow8JG7dxzlm0lvLEfPALEAgQEOlEue2/oKELW37nHz9W/SbPQ4SF31PQ9DoAXi6YBez/eALn+Lq9iPM8oin78SEZxb33IvsIcOHD+cM78jlcgQFBSE3NxeAvmeFb/iHEEIIsWU2E6jc89vrCBjRj1l29JAiYtoIhE0ZxvRoZB2N5xwjcXfEkPtimWnEjh5SDF81lxOoNFc3oDKrED6Dwnuk3e7u7oiJieG2SyLpkecyRi6Xw8XFxWC9p6cnE6jwlbknhBBCbJ1NBCrBsUM4QQobe9ilKos75GPn6ICE7/8CdPosFp1OBz41+aU9FqiMGTMGY8aM6ZFzW8rV1ZV3vb29PfO4paXlZjWHEEII6TY2Eah49Q+xaL+K1FzOcn1RFU68tM3scdW5JZ1pVq/BDkjYhMK2FCRjQRwhhBBiy2wimdZe6mzRfrV5FZ06f3NdQ6eO6y3YAQkhhBDyd2ITPSpiiZ35nQB4RPmjvqiKWXb2lcF7cKjZ42Rhfp1u261Oq9VauwmEEEJuYTYRqFjKMzIQeceuMsvRS6Zi/FOLrNgioL6+3uAmfKGhob2il0MsbvvxazQa3gq2dXV1HTonuyBcV4McuqMyIYQQ27+assj6cHtGEr/Yj4ZKpdH9q/NKcOE/v/Vom06cOIHY2FjOv6qqKvMH2gD27KSmpiaD7SqVqsPBgqOjI/O4szONWmcwNTQ0UG4NIYTc4npVoBI1czQk7m0XwubqBvxw10tI3X8G1TnFUFXUoOT6DaQdPI+9j2/CV6PX4dRr31uxxbaNHVQUFRlW+s3IyOjwOZ2d22q1FBQUdKpdrYGKWq1GaWlpp85BCCHk76FXDf04yd0xcf0yHH76M2ZdVVoR9q3eZMVW9V5eXl5IT08HACQnJ0MsFkEu90JLSwuys7ORn5/f4XMqFD64ckU/PJeZmYnm5mZ4eHgwQ2EeHh6cAIlPYGAgM5wWFxeHiIgITp0YHx+fHr/pIyGEENvQqwIVABiwcArKU3KR+J8/rd2UXs/DwwPu7u6ortbfybo1wGBvV6vVUCqND6+15+DggOjoaFy7dg0AkJeXh7y8PGb78OHDzQYqCoUCPj4+TLDSGky1mjZtGgUqhBByi7DK0I+gXaJp+2VThCIRpr6yEov3vw2fkaaLuPW9dwJmf/GU6baIuM8tFHXsLWEnpLa6GRdRdtKqsTsaW7LPiBEj4OHhYbDe29sbI0aM6FSV3dDQUIwaNQre3t68748lYmJiMGDAAN620R2cCSHk1iHQ9fJsRU1TC2oKy6AsKINWrYGjuwscZVK4+npCZOG051udTqdDQ0MD6uvrIRKJ4ObmRj0WhBBCbEKvD1QIIYQQ8vfVq2b9EEIIIeTWQoEKIYQQQmwWBSqEEEIIsVkUqBBCCCHEZlGgQgghhBCbRYEKIYQQQmwWBSqEEEIIsVkUqBBCCCHEZlGgQgghhBCbRYEKIYQQQmwWBSqEEEIIsVkUqBBCCCHEZlGgQgghhBCbRYEKIYQQQmwWBSqEEEIIsVkUqBBCCCHEZomt3QBi++obWlBcoYJaowUASJ0l8JU7W7lVvU9+fj7UajXc3d3h7u5u7ebcMhobG1FcXAwACAwMhEgksnKLCCEdQYEK4dXUrMHOg+n4eNd1FFU1cLYtmhKCTU+N69Hnv3btGnNxAYDJkyf36gvMyZMnsXz5cgDAli1bcPvtt1u3QbeQ9PR0zJ8/HwCwfft2jBvXs59dQkj3slqgUpFZgKQdB5lle1cnjHvyXms1h7DodMCzH53B7pO5vNsHhXn06PPX1dVh6dKlUCqVzLrTp0/Dx8enR5+3p+Tm5jJByrx58yhIucn69+8PqVQKpVKJAwcOUKBCSC8j3rBhA1asWHHTLwK1hWVI/HQ/syxxd6RAxUb8fjyLCVKGhcuwbGYEhkV5wcFeH9d6SO179Pl37drFCVIAoKysrFcGKiqVCuvWrQMASKVSrF+/3sotuvWIRCLExsZi9+7d2LFjB1566SXY2/fsZ5gQ0n2EcXFxePzxx3H48GFrt4XYiO//ymAef7N+Cu6dHoGIIHcEKlwQqHCBs6Ndjz13fX09Pv74Y4P1ZWVlPfacPWnDhg24du0aAOCjjz6i3BQrmTRpEvM4Li7Oii0hhHSUEADUajW2bNmCDz/8ENXV1dZuE7Gi0ioVTl3TBwWxw3zg5e54U5+f3Zvy6KOPtrWrtPSmtqM7XL58GTt27AAAzJkzBxMnTrRyi25dgwYNYh4fO3bMeg0hhHQYJ0flxIkTSEpKwurVqzF27NhufSJ1YzOyT19mlosS0znbm6sbkHHkImedQCBA6KQhEIpEUFXUoLDdMSFjB0LsaNiFW56Rh+qcEmbZzlGC4LH6P1RlqTmoyW/7du4erIBnnwCUpeYg9+wVlF7Lhlf/YPgOjkRATBQgEJh8XeXpeShLzkF5Wi5qC8vhHuwDz4gAeEf3gSzYsqGKtLQ0TuKoi4sLhg0bZtGxXVVcocLVzApmOSW7inms0elw+EIeZ/9gH1dEBPVMr0B9fT0++ugjAIBCocD999+PLVu26NvJen/4XLt2jQlmJk6ciMrKSiQmJiI+Ph719fWIjIzElClTEBAQwHu8SqXC+fPnAQBBQUEICQnBlStXkJSUhOvXr8PX1xcDBgzAlClTLErq1el02LhxI7P88MMPm38DAJw6dQotLS1wcXHBiBEjkJmZicuXL+PSpUtwdHRE3759cfvtt8PZ2fSsq9TUVBQWFgIAxowZAwcHB6SlpeH48ePIzc2FRqNBaGgopk2bhtDQUN5zNDc349SpU0hKSkJZWRkcHBwQFhaG4cOHIyoqyuhzFxQUIC0tDQAwcOBAODk5ITExEQkJCcjNzUV4eDhGjBiBIUOGmH0/NBoNzp49i8zMTBQUFKC8vBxyuRwKhQIxMTEYOHCgRT8PuVzOPM7MzDS7PyHEdhgk09bU1GDjxo2YMWMGli1bBgcHh255orqSSvyx7F2T+/BtX5e6DRIXJzQ3NBpsn/3FU4iaaRhQHX35S+SfuMYs95kVwwQql78/hKQv/2K2DX9yPsQSO5x7bxezLuV//w95eBYm/2sZhDx/CFtUjTjxznecc7U36rmFGP3InRDZmx4q2blzJ7Zv384sR0VFYf/+/SaO6D77Tmbjpa8SeLcdSSjBkYQSzrpXlg/usUBl9+7dTG/KunXr4OnpyWxrvega8+abb+LChQsAgM2bN2Pt2rUG+7z66qv4/PMpCGQLAAAgAElEQVTPMXXqVINtSUlJePDBBwHog4rs7GwcOHDAYL/p06fj3//+t9lA4eTJkzh9+jQAYMaMGejXr5/J/QF9oPbAAw8AAEaPHo0JEybg/fffN9jvs88+w9atW9GnTx+j5/rwww9x8KA+Wf38+fN49913OZ+xVu+88w7+/PNPREZGctZnZmbi/vvvR0lJicExALB27Vo88cQTvEHCr7/+ik2bNgHQD31t3boVubmGidlPPvkkHnvsMaOv4cSJE3jrrbeQkZFhdJ+JEyfi66+/Nrq9lYODA5NQm5qaanZ/QojtMFrw7cCBA3j66aeRkMB/EbvZ3AMUCI7lfgNL+e2UwX61xZWcIAUA+t8zxeh5L374GydIYUv8dD9OvPe9wfqGKiW+m/28ySAFAM6/vxs/LloPrVpjcj9rqlE1I9LfhfnHFqxw4myL9HfB4Ai5kTN1TX19PT788EMA+qTT+fPnQyQSQSqVAgDy8vKMHqtWq5kgBQATpEilUoMZHqtXr+Yd3mztAQCATz/9lAlSBg8ezOk9OHToEL799luTr0Wn0+Gdd95hli3tTcnKymIenzt3jglSgoKCMHLkSGZbRkYGXn75Zeh0OqPPf+7cOQD69+CLL77gDVJaeXl5cZavXLmChQsXcoKUkSNHIjw8nFnevHkzfv/9d97zXb16lXn8wgsvMEHK6NGjoVAomG0ffvgh5+fGduHCBaxYsYIJUhQKBWJjYxEbG4ugoCBmP39/f6Ovq73AwEAAQElJCZqbmy0+jhBiXSanJxcXF+ONN97A/PnzsWzZsi49kUDUuSK4AmHbcQPvm4acg4nMcubeODRUKuHoIWXWZR2L5xwvcXdEnwlDLXouibsjmqu5NUMufbIHox6eD0dZ23Oc3fwLqtKKOPt5DQqGo5cbco9c5qwvvpCBKz8fxeB7p1vUhpvt6fuG4On72gLAYQ/8wtRNOfOf+RCaGfrqLuzelEcffRROTk4AgNDQUCQlJSEnJ8fosXzbvv32W4waNQoikQgVFRVYsWIFk9T6+++/Mz0XrVq3tbrrrrvw/PPPM0MGu3fvxj/+8Q8AwPvvv49Vq1bBzo6/pywtLY351t46PGEJdrAEAOHh4diyZQvCwsIAAMnJyZgzZw4AfSBz9epV3nOXlpYy76VSqcTnn3+OoKAgvP766xg8eDCkUilqa2tx+PBhfP7555DJZMyxqampTM0RAPjnP/+JJUuWwMnJCTqdDj/88ANeeuklAMAbb7yBO+64g/M+6HQ6Zgit1csvv4x77rkHTk5OaGlpwSuvvIIff/wRAPD1119zgjAA0Gq1WLNmDbP8ySefIDY2ltN7k5OTje+++x79+/c397Yy2L3DlZWVvXIWGSG3Iouih99++w3PPPNMl8Z23QK88XTBLubfnT+8yNkucXfkbG/9Z+fU9sclbOIwSNold2Yc4WbwX999nLPcf/FUiB0kJtvmN74f1qZsw9rL32DSW8sNtl//7STzuDwjD4lb93G2T3prOe7f/z4Wbn8Zj1z5EkMfnc3ZfvL1b9FcpzLZBltQWdPIBCm3DVXctCBFpVIxvSkAcPfddzOPW7+Bl5SUoKWlhff49HRu7tI333yDsWPHMhc2T09PPP7448x2vs8xeybIuHHj8MYbb3DyGu68805Oz4qxIREAOH687TM4c+ZMo/u1xw6WpFIpvvrqKyZIAYB+/foxw1MAeIdTABgMlUyfPh379u3DhAkTmB4qV1dXLFiwAHv27OHsu3XrVubxc889h9WrVzNBo0AgwKJFizB48GAA+iCofe5QcXExZ2r5Y489huXLlzPnsLOzw1NPPcVsT0pKMmh/fn4+c45Vq1Zh5syZBkNMwcEhePHFF7FgwQLe94BPfn4+89jc0B0hxHZYFKgMGDAA69at4/zRtAaRvR0GLecWy7rGCkyUReUoOssdf46eN8HseWdsXAt7VycIRELELJ8N3zHcRMHC+LZzZh017LEZcl8sk3Tr6CHF8FVzOfs0VzegMst4jkVgYCBiYmKYf5Z+A+9u6XltQyLDonpmiIdP+5k+7Cm87GChoqLC4FgAuH79OvP4vvvuw4QJhj9z9me3/TBSdXU156L/1ltvGdTZEAqFnJ+LqVlIv/32G/O4I0npFy+2JZO/8cYbvMMaffv2ZR4XFRUZbAeAlJQU5rFUKsXbb7/NBArtsQOArKwsJnCJiori9Gq0EggEnETv9m1gB0kKhYI3B8XLy4sJmPgC0IKCAs5rMTbE1REajYYTXLq6unb5nISQm8NsZdrFixdzvuFaW/8FE3Hxw7YLQeGpZNQUlMHN3wtZR7hBhCzSF4oBxhMOAcBnZDjcAxWcdf0XTuIEPDXZbX/gqrK4f5jtHB2Q8P1f+nKugNE/qjX5pfAZFM67beXKlVi5cqXJdt4MKTltgUr/EJmJPbtP+96UJUuWcLazE2qNFX1LTGwbDjT2DVur1TKPWy+Srdg9LBMnTmRyGdpjX1CNfSPPzc1lhn0UCgUiIiJ492uvsbGR06PCl/AL6C+4rVxcXHj3uXLlCvP4lVdegYeHZZWE2bk3q1evhsBIjxp7vVqt5mxjB0krV640OiOH3esiFnP/DPn5+TKPT58+jUceeQT33Xcfxo0b1+nbKLDzkti5NoQQ22c0UAkNDcWDDz5o0WyFm0keHgjfMVGcQCLj4AXErJiNZNYQDQAMWna72enFsjDDb61SP25yYfWNtuCkIpXb3V5fVIUTL20z2+7qXONDBbbiamYl8ziyh2b2tMfuTVm6dKlBIMK+yPIVfdNoNMzsmqCgIKNTXtlDFCEhIZxt7NyQhQsXGm1rdnY289hYfgO7N2Dq1KkQCi3Lzbpx4wbzeOnSpUZ7QNizn4wlkrITVNmFzsxh1xcxVebfVBsuX27L0ZoxYwbv8bW1tczjwYMHGwREwcEhmDdvHpOse+jQIRw6dAhSqRS33347VqxYYXJ6NB/2+2tsOjYhxDbxBirdkTzbkwbfH8sJVK5+fxjh00cYDPtEzRpj9lz2LoYXBKGYe3FhJ9jW5vEPP5jTXNdgficru5DcFggE+/Z813j73pRz587hySef5OyTnJzMPOYbbmEHBiNGjDAaGLCHKIKDgznb2D0Z7KGV9lovdlKpFG5ubrz7sIMpX19f3n34sPNs2MXJ2mMPUfn5+Rlsr6qqYoY4Jk6cyEmUNaWhoYE5d3h4uNFACeBe9Nu/xlOn9DPxpFKp0Zo17J+jsd6N9957D9HR0fjkk084icG7du3Crl27sHDhQrz++usWl8JvbRcAjBo1yqJjCCG2gROo+Pj4YPXq1Rg61LJZMtYSPm0EZ7kiOR+nP/iBs67PrBi4KMx3edeVVhmsa6rnBhXOvm1/7D2i/FFfVMXZ5j3Y/Dc0WZjhRcWW1KlakFZQBwAYH+0FUSdnaXUEe6YPoM9vMFUzg6/oG/sCb+zCCHATXNvvx06k9fb25j0+OTmZaaupmSbsi7Cxc/Fh59kY661pbm7GkSNHmGW+QIj9/g0fPtzi52f3krCn/7ZXXl7ODG2Fh4dDIpFwtrW+R6Z6LdizgozVghGLxVi1ahWWL1+O69ev4+TJk/j888+Z8+/evRuxsbG47bbbLHh1wJ9//sk87kgvEyHE+phApbsLvPUkibMjhjw0E4n/afvjk/Ijd9in/93Ga6ewFV1IhVaj4RR1K716g7OPLKItyPCMDETesbY6EdFLpmL8U4s61P72ysrKOBdsiURiNE+ip2Tm1zCPb0YirUqlYoqCAfqZNnzTfWtraxEfr8894iv6xu5xMZaLUV5ezhTQUygUnEC8vr6ec3E3lvexb1/bTC9TM03YgYqluSEAd/aLsV6QM2fOMJ+TBQsW8PZ6sIuZmeodao+daGpq2i47UfjOO+/kbGMHjaZ6k7777jvm8fTppqfti0QiDBw4EAMHDsTKlSvx1ltvMbcl2LNnj0WBSm5uLvMzDg8PN1kojxBie8Rubm49UjLfHAc37gWhuboB1TnFcLew7Hz0nZM4gUp7fSZa1itUX1SFzP9eQsT/emmaalVI/IJbFVYa2PbNWNaH2zOS+MV+xDwwi1PLha06rwRpf57FyIfm824HgC1btlitMm2r1Jy2XqLoPj2fSPvzzz8zF11T1UULCwuZWTx8Rd/YxcXY+RFse/fuZR63r3/SfqpyVlaWwey2+vp6fP99W+G/WbNm8T4PAE7w4Oho2X2S2hesS0lJMei1aa1h0mrp0qW852K/H5Ym8gLcoMrY/b5UKhW++uorZvmee+7hbGcHSWfOnIFGozFIfr18+TKz3+TJkzs0k9DBwQFLlixhApWmpiaLjmut0AsYBleEENsn3LRp000PUgDA2dvw2+afz3yChO1/Iut4ArKOJ+DGiUToNFqeowHFwDB4DQrm3Tbk4Vlma6ew7XngPVz+6Qgy/3sJv6x426DoW1hs21BT1MzRnFouzdUN+OGul5C6/wyqc4qhqqhByfUbSDt4Hnsf34SvRq/DqdcMq9vamitZbYm0UcE9m0irUqnwwQcfMMuPPPKI0X3ZU5XbF3ZrX1zs559/NpjqGh8fjzfeeINZZhczAwyLrJ05c4azrNFo8OyzzzJB1dq1a03mb7CTS6uqDIcV+bR/XezhnVZff/01Dh06BECfgNpay6Q9diXpjlRtZfeA7N+/3yBYaWxsxBNPPMH0vKxZs8ag54cdJCmVSs4MIEDfs8Wu0rt8+XKDdpw9e9Zk1djW9wDQV7o1p66uDps3b2aW77rrLrPHEEJsi9hat5139nKDs6+Mk+9RdDbVICG29V4/fAYtvx1Hnv6Pwfr+FtROae/wU5/yt9NXhrDJbXUjnOTumLh+GQ4//RmzriqtCPtWb+I7vNe4lNqWJBzqx9871F3YvSkxMTEYMWKE0X3ZQUFrzY3WHpH2xcUA4LXXXsNDDz2ElpYWnD9/nnOvnA0bNnCmOwPc3BAA+OCDDxAYGIj+/fsjPT0dP/30E/ONPCoqCitWrDD52tjDJnyzlPi0L1h34MABfPvtt5g+fTrKyspw6NAhzsX2tdde4506XFtbywxxTJw4sUNTed3c3DBu3DhmBtXjjz+OF154AR4eHrh69Sq+++47nDhxAgAQHR3NKTzXqnWIjt3O1unRCQkJ+PTTT5lA56677jL4gtTQ0IClS5dCKpVi7dq1GDlyJAICAlBXV4f4+HgcO3aM6R2TSqWYPZtbWJEP+7P2j3/8g1OXhxDSO5ito9JThCIRpmxYhb3LN5rf2YjI28fgCLiBiizSFz4DLe9Obj/Vub3b3lkNoZj7B3/AwikoT8k1OfTUmzQ1a3ApQx8wjozyhMSuc7UqLNG+N+Xhhx82Wq+jVXh4OHMBrqioYIIBdm5J6z47d+7Ezp07Dc7x+uuvGwxVANwia9HR0bh27RpWrVrF24bt27ebnUXDvpeNpYEKO1hqfR2vvvoqXn31VYN9f/75Z6MFAdnDWKZmDhnz4osvMsNap0+fZsr1s40ePRpbt241qEXDLprXui0+Ph5z5841OMe8efOwYcMGg0Cq9V5HSqUSGzZsMNnWbdu2mQ062LPKpFKpQY0eQkjv0PNTO0yInD4K9x/diIErpsN3TBRndk0rgYk6FI7uLgZVZAcuizVbO4XNf1Q/3P3bawbPLXF3xN2/vmYwwwjQB1lTX1mJxfvfhs9I08Wj+t47AbO/eMrkPu0LXrVf7mnZhW29EjFRnib27Lq//vqL+YYbHh5u0QwM9sW/pqYt6Zc9tPDKK69wbgTYSiqVYuPGjbwXKXaRtZiYGGzbto13SCU2NhbfffedRd/GQ0NDmQt1+94aY9gF63766ScsXrzYYJ+oqCj8/PPPRuvEANypy52pfxQVFYU//viDt0ZJeHg41qxZgy+++MIgSAG4QdKqVauwfft23v3WrFmD9957j7e3x8XFGQsXLuQ9rtVTTz2FixcvWhSIff/998xn7cUXX6Sy+YT0UgJdd9SntpKa/FJ8OWotZ93q+M/g6mN8tsWR9V9w7no8/Mn5mPjcEkCnQ3lGPuqKK+Ae6gt3f2+LAx5NUwtqCsugLCiDVq2Bo7sLHGVSuPp6QiThv3GdLfnxUDqe/D99Mudnz47F3Im9oyDWY489xiQdnzt3Dl5eXlCr1UhLS0NFRQU8PDwQERHBmULLxr7J34MPPogXXngBgD6XonU4JiQkpEP1UAB97822bfoigImJiSbLtWs0GkRGRgLQBwN//aX/bKpUKly/fh1NTU3w8fFBnz59zPY8dReNRoOioiLk5eVBLBYjIiIC5oaId+zYgZdffhkA8Nlnn2HatGnQ6XTIzc1Fbm4unJ2dERYWZrT+TPvnz83NRXl5OVQqFZydneHj4wOFQmH0RpDtsX+2M2bMwMcff9zpqraEEOuy2tBPV+m0Ot7aKaaCFJMEAsgjAiGP6Pi0YJG9HTxC/eARatu1Uow5erFt2u/YQb3njrLs4mJeXvpqwmKx2OI76rITadnHyOXyLuUyxMbGMoFKfHw8Jk+ebHRf9o3yYmJimMdOTk4dqoPSnUQiEQICAkzWpWmPb7aRQCBAcHCwQYE9S54/NDS00xVkGxsb8cwzzwDQ14ThG2YihPQevSpQKUxMQ+q+M1CV1eDGoXiD2TkxDxmOhxPj1Botjl3Mxx9n9RfLSQO9IXe3bEqttbGLi40fP75T52DXYGnt1egOw4cPh1QqhVKpxKlTp0wGKuw8mwEDBnRbG242diJtRwKcnrBlyxZmCvRnn31mciiJEGL7elWgUp6ai4Qt+3i3BccOQeAIy75J3+pqVc345yfncCShGDX1bdN516+KMXGUbbG05Lwp7CJr3Xn/F7FYjPXr1yM5OdnsFGF2sNTR+9fYCnbRvK7cOLA7NDc3o6mpCatWrcL48eO7NQAlhFhHrwpUjPHsF4BZmx63djN6jbScavxyils8bevTY9C/TyeHzaygsxVYW7GLrEVHR3d7ReYFCxaYrGDbij1k0pHiZ7aEnUhrKtn3ZpBIJEyuESHk76FXBSruwT7ou2gis+zg7gLFwDD0nT0WIjvLXorXgFBELGi7WaE8yvh9Tf6utDod7hwfCD+5M/r4u2LaqEB49ZIhn1aurq644447AHSuJ6Kuro453lQdl54WGBiIO+64A66urmYTVm2VVqtl3svODsMRQogxvXrWDyGEEEL+3qxaR4UQQgghxBQKVAghhBBisyhQIYQQQojNokCFEEIIITaLAhVCCCGE2CwKVAghhBBisyhQIYQQQojNokCFEEIIITaLAhVCCCGE2CwKVAghhBBisyhQIYQQQojN6lU3JSSkp1RVVUGj0Rist7Ozg5ubm9njGxsbUVdXx7vNzc0NdnZ2XW4jIYTciihQIQTA+fPnoVarDdbLZDKMGzfO7PGlpaW4fPky77ZRo0bBy8ury20khJBbEQ39EAJALO5azC4U0q8SIYT0BOpRIQTAtGnTOMt79+7t0PEBAQEICAhglrOzs3H16tVuaRshhNzK6GsgIYQQQmwWBSqEEEIIsVm9euinLDUHZSk5KL2eDVV5DeR9g+AVFQyfQeFwdHfh7Fuenofq3BIAgFAkRJ/Jw8yeX1lYjtLkbGY5ZOxAiB3tkRd3HU1KFbPed1A4JM4OKLiUipxTl9FUUw+v/iGInDEazl7uJp9Dq9GgKCkDFel5KE/JRXN9Izwi/OEZFgDfweFw8jQ94yTr2CVoNVpmOXBkf9g52aMiIx+F8akoiE+Fg6szPPsGImL6SKPnS0tLQ3FxMbPs4uKCYcPMv0ddVVdXx8yW8fT0hEgkglKpREVFBZRKJZycnODm5gaFQgGBQGBwvE6nQ1lZGQBAIpHA3Z3//S4tLTW7DyGEENvTKwOVFlUjTrzzHZK+/It3u8TdEXM+ewYh4wcz69L+PIdz7/7ELK9L3QaJi5PJ50n98wxOrv+WWV6T9DnEjvY4tv4rlF3OYdbHfrIW8Zt/R0VyPuf40+/swN0/vgrFgD6856/OL8GBZzaj8FSy0dcx7d016Dt7LMBzkQaA35Zs4Czfu+dNxH/+BzL+uGCwb2K//Xjg8Cbe8+zcuRPbt29nlqOiorB//37efbtTYWEh0tLSAABjxoxBRkYGE3iw+fr6YsiQIRCJRJz1Wq0WFy7oX6u3tzdGjhxpcCx7H09PT4wZM6a7XwYhhJAe0uuGfppqVdgx9wWjQQoANFc34Jd730T8N/uYdfK+QZx9qvNLzT5XZXoB81ji7ghnOf838YPrNhsEKa3tOPLy57zHFCak4qtR64wGKa3H71/zIU68v8NsW1v9ue4j3iClN4iLi2OCFKlUypmJU1RUhPz8PGs1jRBCiJX0ukDl4pd7eIMCibujwbrjL36DmgL9hc+zjz9nW+swkCllV7OZx/6j+5ndn68NxRcyUHLtBmedVqPBoec+Ndg3cPIAeA817H25+NFvKEvNMVjPR5lj2BvRW6jVavj6+mLGjBmYOHEiZsyYgaioKGZ7enqGFVtHCCHEGnrV0E9NfinOv7+bsy583mjM3LgWdk4OKExIxQ9zXuJsP/3BD5j178fgHuzDWV91owgAoNPqcP2Pk8x6eZg/FAPDoNNoUZqQxaz3Hsg/fNPq3j1vwm9IJDKPXsQfD7zXrt0lUESHMsvXfj1uEGwt3v82fAdH6NuWU4xD//wU+SeuMdtPvPMd7vr6RZNtaOXsK8P0jQ9DMaAPnGRS1JVVIe3AOaT+fsqi463F3t4eQ4cO5dQkCQ8PR15eHlQqFRobG9HS0kJVXgkh5BbSq3pUck4bVv6c8f6jsHNyAAD4DY3Cbe+v5mxP+eEEtGoNRHZiTm9FRZp+GKEmrwR/rf0/5t/5rb8BAGpLKznnkUcGGm2X75go+A+LgkAoQPi0EfAZGc7ZXldcxVlO/eM0ZzliwRgmSAEAWbAPhiyfwX3tBxOh5Snx3p6zrwxL9r2DPpOHwVnuDoFICFcfT8Qsn41Fu980elxgYCBiYmKYfwMHDjT7XN0tNDTUoHCaQCCAXC5nlpuamm52swghhFhRr+pRae0FaTVwxXRInLnDLZEzR+PIc9y8EGVxOdwDFFAMCWN6SSqu64dSSlOyOfvmHk8CAFTnFHPWe4Rxh47YAsZEc5Zd/b1QjLZhipZG7sW1OD6ds9ykrMfFr/cCOh0A/UyWxup6g+epK62C1FdusJ5t2MNz4KLw4N0mbJeIyrZy5UqsXLnS5Ll7mouLC+96e3t75jFfmXtCCCF/X70rUMks4CzL+vga7OMokxqsU+aXwT1AAa9+wcy6sss50Go0KE7K5OzbXN0AZWG5YaAS4me0Xd6s8wKA2EHC3eF/AQgANNep0FzdwNmce+Qyco/w3yem/eswF6h4Rhjv+bF17ICEjd3LotVqefchhBDy99Srhn4aWbVLABj0prRy9pW1O07fO9H+Il5bVIGCC4azbspSclCZWcgsew0KhsjeeF6EQGy8p6K9hmr+O+xaoqXB/LCHsfekN+Crk0IIIeTW1qt6VKT+chSylhsqlQb76LQ61Bdxc0KkPp4AAM8+3F6R8vR8FJ1NBQBE3jUWaT+fAQCUXMlEeUrbLBvFEG7OSVe4eMsM1nkNCoaLn6fZY51krmb3EUt61Y/0pqBeGEII6b161VWtfZ5I4cVUg30qsgynLkv99MMlTnJ3SNwdmaGXlN/bZvtEzBiFqvQClF3OQWF8KiePxKvd0E5XiCR2kAZ7caYRT/jXUoRMGNJtz9EZZWVlUCrbAj+JRILAQNsfRmIPCxnLX2lsbOz0+TubE8PuHNJYkARNCCGEX68a+pGFcnNSbhy4hPIMbhGwpO3cQnASd0dO2fiAsf2Zx6m72qbrKgaFIXDCIAD6nBF2HomniRk/neE9OJSzHP/VPug0xr/1FyakcqZQ94QtW7YgNjaW+bdmzZoefb7uIhAImNyW+nrDBGQAqK6u7vB5WxN7GxoaoGPlGFnK3t6BedzU1PlAiRBCbnW9KlAJmzrcIP/k50VvIP1wHEquZOL4O98aVKwd/ew9nK+3XtHcIAHQBzPu/t7wGx5lsA0APMMCuqH1bQbffztnOedgIn55cANyz11FbXEF6kqrUJiYhqu/HMOOBS/ghzkvIevwxW5tw9+Jk5P+VghNTU2oquIO+2k0GmRkdLxQXGugolarmfsEdaZNAJCXl9+pYIcQQkgvG/oRO0gw+Y3l2Pdg2/1q6ouqsKddgbVW0mAvDFkcy1knjzLsHelz+3BAIIDPgDCDbRJ3R7M3Fuyo4LGDEHX3eE6PTs7BROQcTOzW57lVeHt7MwHKxYsXMWjQILi6ukKlUiElJYW56WFHBAYGMjdpjIuLQ0REBGf6tI+Pj8F9h9hcXV3h7u6O6upqVFdX49y5c/Dz84VYrE/KdnZ2ppsjEkKIBXpVoAIAkbePQcmTN3Dxw99M7ufsK8Mdnz1jMFWYb/qu/0h9eXypnxzOvjJOMq7vSP5elq6a/NIDUJVVI+/Y1R45/60kKCgIqan6fKWmpibExcVxtoeEhCA7O7tD51QoFPDx8WGClfR0bu2badOmmQxUBAIBoqOjcfq0vrhfRUUFKioqOG2iQIUQQszrVUM/ACAQCjDxuSW4a9fLkAZ78e7Td9FEPHBkExQDDXtIZEE+But8BrXN6gmeyk1qVQwyPIeg3QVK0K6aqrD9dGWeabfOcncs/HY9Zm59wmA4i7OfrwxDHp6FmFVzjO5jqi2WYt8AkG+5p1gyJZm9D9/+9vb2GD9+vEEdFrFYjNDQUPTr13afpvaVb02JiYnBgAED4OFhWEDPknbLZDJMmTIF/v7+nKEgS48nhBACCHS9fPC8saYeFZn5aK5vgNTPC7JgH8NAoRdoqlOhJr8U9aXVgABwkknh6CGFq48nBEK6qFlCq9Wivr4eKpUKDg4OkEqlFBAQQkgv1+sDFUIIIYT8fd2U/v1L3+zHjR6/KOwAACAASURBVOMJXTrHtDdWwy3Au5taRAghhJDe4KYEKhUZ+V2e0dL8zwbzOxFCCCHkb6XXJdMSQggh5NZxU3JUlEXlaKis7dI55BEBEEmM3xiQEEIIIX8/lExLCCGEEJtFQz+EEEIIsVkUqBBCCCHEZlGgQgghhBCbRYEKIYQQQmwWBSqEEEIIsVkUqBBCCCHEZlGgQgghhBCbRYEKIYQQQmwWBSqEEEIIsVkUqBBCCCHEZt2UuycT0lEajQZnzpzB2bNnUVpaitLSUrS0tOD777+HUEjxNSHEch9//DHOnj0LhUIBHx8fhISEYNasWZBKpdZuGrEABSrE5mg0GixduhQXLlww2Gart6ZSKpUoKSnh3ebv7w8nJ6dOnbeqqgo6nQ729vZwdnbuShMBgAn47Ozs4O3t3eXz9VbV1dWor68HAPj6+va64LehSYOSino0tWgAABKxEKH+bt3+PE3NGiSmlfFu8/dyQYDCpdufsydkZWUZ/D158cUXcfLkSfj5+VmpVcRSFKgQm3Po0CHOH5XVq1cjJCQEUqnUZi8oycnJuHz5Mu+2iRMnIioqqsPnbGxsxO7duwEAUqkU9957b5faCAB79+6FRqOBUCjEqlWruny+3ur48eMoLS0FANx5553w9PS0cossE59civWfX8SljCrOejdnO6TsvKfbn6+wrA7z/3WEd9s/Fg/Ak4sHd/tz9oT7778fkyZNQllZGXbu3Inc3FwAwCeffIK3337byq0j5tzSgUpFZgGSdhxklu1dnTDuya5fDEjXXL16lXm8efNmzJgxw4qtsYxYfEv/KvFKTExkLgjTpk3rdK8S0UvLrcKcfxy6qc8pEtnmF4OOiomJQUxMDAB9YDpq1CgAwNmzZ63ZLGIh8YYNG7BixQr4+PhYuy03XW1hGRI/3c8sS9wdKVCxAZmZmczjwYN7xzc29h9CADh9+jSuX79uxRZZX25uLjMc1tDQQIFKF23edY15/Oi8KNw5uQ+kLhIAgF0PBRRBPq4o+mMJs5ySXYUpj+83cYTtk8vliI6OxrVr15CbmwuNRgORSGTtZhETxHFxcUhISMBDDz2EadOmWbs9hKC5uZl5fCsnu9nb22Pq1KnQ6XRwcekduQCk5yRmVAAAfGWO+NfyYX+b3g5rUCgUuHZNH/g1NDTQ75eNEwOAWq3Gli1bcPXqVSxfvhzu7u7WbhchAACBQGDtJliNQCBAWFiYtZtBbIBGq0NaQR0AIDLAlYKULqIelN6FM7B+4sQJJCUlYfXq1Rg7dqy12mQRrUaDnNNXUJaSjdr8cjRU18LJ0w1OcjfI+vjCb2hfuPp4cI5RNzYj+3RbwmNRYjpne3N1AzKOXOSsEwgECJ00BEIjH+yy1ByUpeSg9Ho2VOU1kPcNgldUMHwGhcPR3XSUXp1XgvK0PGbZxcsdPoPC0VBdh6KkdORfuI664kq4BXojaNxABAzrCwHPH6ja4goUX81CZXoeKtLz4ewtg2dEADzDA+A7OMJkG1qlpaWhuLi4rS0uLhg2bJhFx1qLSqViholkMhkCAgKM7qvRaJihGEdHR4SHhxvsU1RUhBs3bkCpVKK+vh5CoRBeXl7w9vZGQEDATRm6uHHjBlpaWgzWu7i4WDw7oa6uDhkZGSgqKkJDQwN8fX0RGhpq8fBudXU1MjMzUVlZibq6Omi1WshkMnh7e8Pf3x8ymYz3uPz8fFRVtSV5KpVK5nFKSopB75irqytCQkKMtkOtViM7OxslJSVM4qtCoYC/vx+Cg40f16qlpQWZmZkoKChAVVUVPD09ERwcbPI5+cTFxaGhoYFZ9vf37/EAUqvT4Vh8AbRa/Sw3jVrLbCuracThC3mc/R0kIowfwv/5KKlU4fzVEmQXKlFU2YDmFi0iA6WICHJH/xAP+MhvzpBcdW0TDp7LRV5pPfJL62FvJ4S3hyNCfV0xdrAvFB7m25FXUofrmRW4nl2FnOJ6hPq5oF+wDCMHKODuan8TXgWxBoMMwJqaGmzcuBEzZszAsmXL4ODgYI12mZR/MQWHntuCqrQik/vd/sk6RC+YxCzXlVTij2XvmjyGb/u61G2QuHB/iVpUjTjxzndI+vIv3vNI3B0x57NnEDLeeI5F5uGLOP7SN8xyn1kxGPHIAvx4x0sG+55/fzfmbnse4dNGMOt0Wh0u/3AIR5773OhzhM8didteXw1nL9O9ZDt37sT27duZ5aioKOzfb52xaK1Wa34n6IeIzp07B0CfzLpixQqj+2ZkZDD7enp6cgKV4uJi7Nu3j/d5y8vLkZycDKFQiGnTbrPoAtkVR48e5W2HpbN+cnNzcejQIc45KioqcPXqVQwdOtTksVqtFtu3b+cNlCorK5mgcNCgQUwyItvFixdRVsY/lZUvX8fJyclo0FBcXIwDBw4YtKW8vBzXrl2DXC7H7NmzIZFIeI+vra3Fr7/+iqamJmZdVVUVMjIyIJfLO9RT98QTT3Cmnq9ZswbPP/+8xcd3RkuLFkteP8677XquEve/eYKzjm/Wj0ajxdznDhjMEGrvkydG467bejbw2rYvBf/8LN7kPp8+MxbzJoXybtNotPjqj2Ss/zqRd7uvzBGf/WMcRvRXdLhttlrygLQx2n944MABPP3000hISLiZ7TGr8kYhfpr3stkgBQDUTc1m9+mMploVdsx9wWiQAuh7Z365903Ef7PP4vPmn7mOX+9/y+h2zq+TToc96z4wGaQAQMYfF/D15MdRk19qcTusrbCwkHlsajaNu7s708uhVqs5x7XHvlD269ePs02lUnEu7EKhEI6OjnB0dGQuaFqtFgcPHsKVK1c69mI6SCgUQiAQMP86Ij8/H3/99Rfntdjb2zPnSUhIgEajMXq8TqczCAwkEgmcnZ05P4fLly/zBrGt+7X+a/+62NvEYrHRHqrU1FTs2bOH0xZ7e3vY2dkxy+Xl5di5cydvUNfU1IRdu3ZxghSJRMK0qby83GhAZStEIgEi/V2Yf8EK7nvF3hbp74L+Qfw1VNoHKWP6yTFzhC8i/dt6e9d9dA7vbrvU/S/ifw6ezeUEKcEKJ8wfG4CZI3zhK3Nk1teq+P9eazRaPPD6UU6QEqxwwm1DFczxRVUNmPvPwziZYPxvABv7s1dZWdGh10NuPpNzKouLi/HGG29g/vz5WLZs2c1qk0mXfzhssC5iwRh4R4egsaYelen5uHGA/5eOb9jEEoJ2tTsufrkHFcn5BvtJ3B3RXN3AWXf8xW8QPn0k3Py9zD5P+2NNSTt8ARm/n+Osc/aVQTG0D7L2c7+5NFc34OR732POx09ZfH5rKSgoQEZGBgAgKCjI6DfmVn379sWlS/qf97Vr13iHR1paWlBeXg5AP5QXGRlpsI9QKER4eDiGDRsGV1dXZr1Go8HZs2eRnJwMQN9rEB0d3WP1XNi9Qo2Njfj2228tPvb06dPMYzc3NyxYsIC5uB87dgzp6enGDuXw8/NDTEyMwVBReno6jh07BgDMcAp7GGj69Omc/f/44w+mJ2L+/PkW1Sppbm7mvA5fX1/ExsYyn4Oqqirs2bMHTU1NaG5uRlxcnEHvzsWLF5mATCwWY/78+Uw709LScPw4f0+FLRGLhDi+dR6zrNZoEbhgJwAgdpgPtr16m8XnemxBXyyaHo4+Adxg5vzVYqZGyoc/J2PZ7Cj4yrteVLC9b/anMo+3Pj0G8yb1ATsGv1FQg+8OpEMm5R+6+eW/WTiSoP8cBSucsPXZcRgapS9WqNMBuw6n44n/09ddem7LeRzbPBcOEtM5KOxh4kuXEnq8p5R0jUXFH3777TckJSXh0UcftXpyX+GFZM7yhNfvx4hVcznr6surkfjdX3D05I6JuwV44+mCXcxy9slE/LKorQdD4u6Idde2w5Sa/FKcf383Z134vNGYuXEt7JwcUJiQih/mcIduTn/wA2b9+zHzL+5/hj46G9ELp8Az1A+aFjUq0vNw6v2daP3dVjc2478vfMk5JvKusZj5/jqI7O2gbmxG6p9n8de6T5jtaT+fQdHK2fAdYniRthX5+fn417/+xSzfcccdZo/p168fE6jk5eVBp9MZ9ESkprb9ofTx8TFIpAsNDUVwcDBvgp1IJML48eORl5eHuro6qNVqFBcX21w1y+LiYiYnRCAQ4K677uK8nsmTJ6O8vJyTQ9KeSCTCypUrjSYaRkREoKioiHk/k5OTuz2X7fTp00yQIZfLMWfOHM52mUyG+fPn46effoJOp8OVK1cwYsQIJnDUaDRISUlh9r/99ts5wVRkZCQzFPZ3JxIJkffrYoiNfEEbNcAHbz84DP/6Qv/7cyKhEPdOtyynrSP+m6TvzXVztsP8yX0Mtof6u+HlVcN5j1XWN+PlL9u+eO58dSqnAq9AANwzPQLFFSps2HEVOSUq/HE8C/eYeR1Tp07F5s2bAQCvv/46/P39MXz4cJstKHmrs+inMmDAAKxbt87qQQoACCV2nOUbhy+hOp9butxZ7o5xT96LyOmG4+hdlXPasProjPcfhZ2TPpfHb2gUbnt/NWd7yg8noFUb73JnG7d+Caa8uBzeUcEQSewgcXaE75BI3P3devSZok9uLbl+A/VF3AvOyLV3QmSvf2/EDhJEz58IWaQvZ5/CBOPfqAMDA5laIDExMRg4cKBF7e2q9evXY+7cuRg6dCgmTZrEfJtevXo1Hn74YbPHOzk5MbPUNBoNU2CMjX3hGjBggMF2gUBgdhYAu3eBnSRqK7Kzs5nHQUFBvK9n0KBBZs9j7n0IDAxkHtfV1VneQAuxX8dtt/H3GkilUiZQ1Ol0qKho67ovKytjhoMkEglvQNnR2jwjRozg/G74+/t36HhrMhaktBoSJWceF5bV90gb3Jz1f5dq6luQmmM6X6a9C9dKUFOvHwJcN7+v0dsE3D+rrfLzpdRys+cdMmQINm3aBIVCAaVSicWLFyMiIgKzZs3C3LlzmdsrENtgtkdl8eLFuPvuu29GWyzi3S8EhafaelXyT1zDV6PWwW98P0TOGoOAkf3g3TcY6KFprVU3uLkxA1dMh8TZkbMucuZog9wRZXE53APMJ3rFLJvJv0EgYGYeVeca3lMm98wV5P4viGpNDrNr167qG8bzelauXImVK1eabV93y87OZuoZAPqL0FNPPYWFCxdaPMumX79+TIXJ69evIzg4mNnW0NDA9CKIRCLOtvbq6uqQlJSEqqoq1NfXo7GxkdmmVquZx3zJptbGDp6MXUjZQYYparUaV65cQUlJCerq6qBSqZjPFDsnhF3vpjtoNBrO+/z7778b3Zf93MXFxfDy0g+t1tTUMOuN3cvIyckJEonE4vZ/9NFHFu1nq5pbNDh0IQ/JWdXIL6tHQVk9NP+bTVRT3/YeqBot+zLVURMGemPvuQIAwANvHsPD8/phzAAFwgPdzE6zzimsZR5/eygTVzIrzT5fXIr5QAUAZs+eDWdnZ3zxxRfMLTtaewtt8Xf8VmY0UAkNDcWDDz5okHhobYOXxiLx8z8N1heeSmYCGFmkL8Y+vwhRM7t/inVVZgFnWdbH12AfR5lhkTJlfpnZQMVrUDDEjuan2FVnGwYcJ17aZva4inTDvBpre+yxx3DfffehuLgYR48exenTp/Haa69h06ZN2L17t0W9eFFRUTh37hx0Oh0KCwuh1WqZLlz2sE9QUBBvgqpOp8OhQ4eQk5NjUZttcZYAu3fDxYU/z8DR0ZF3PVtiYiLi4+MtnnnVndoPS7EDRVNUKhXzmB2omAp07e3tuz3QskUHzuTgX5/Fo6jK8vy37vbsksFMoJJTosIL/2nLobttqAIzxwTijgmhkDob5qNlFrYF4DX1LTh+xfykgIIK86+1paUFS5YsQXy8vi0KhQJLlixBSEgIRCIRJ0+NWB9voGJLybPteYYHYMEPL2Lfwx8YTT6tSivCvgc3oebVMoxcPY93n85qVKo4y+17U1o5+8o4wzONSvNdiQ4elv1yqMprzO/Eo7nWen+sjBkxom269f3334+33noL27Ztg1KpxAcffMCMI5tiZ2cHLy8vlJaWQqvV4saNG0yAY27YBwAOHz7MCVIcHBygUCg4s13y8vKYC6k1LuLmsC+6QqHx4RuBQGA00EpNTUVcXByzLBaL4ePjAxcXFyaZValUMsMz3f0+sAMOoVCI/v37W3Qcu5eMPdPH1DCWuSTtv4MzSUVY8c4pZjnS3wWzxwTB28MRLg76z3VheT027NDn62h66HMdFSzD6S1zsGnnZew+yR2aPZJQgiMJJfj3zmvY9dZtCGuX8FtR0/bzfGRuJKKCzRcjdZCYT73cu3cvE6RERUVhx44dVOjUhnF+oj4+Pli9erXZegvWFjphCNbE/QdZxy4h42AcbhyK5w1aTr36HfrPnQAXhQfPWTpH6i8HewJcQ6VhvoJOqzPIIZH6mJ/xYOdkWcEiaaBhl3boDPPF2dxCDXt/bIlIJMITTzyBbdv0vUNnzpyx+NgBAwbg6NGjAPSzf8LCwlBXV4faWn3XsZ2dHW/Bs6amJk5exKRJk3hnBdXV1ZlMRLU2Jycn5rWyL9ZsWq3WZG8QO0gJDw/H5MmTDXqgMjIyOO9Xd2InvQqFQowZM6bD52B/Ezb2PgDgFHD7u/pkd1vC8OsrhmDV/P4Qtvt5xl0vAXb0fGJxnwA3/N9zE/D22hakZFciIbUcB87l42yyfpimqKoBz/3fOfzy7u2c44J92qZRjx2owLRRQd3SHna5gmeeeYaCFBvHBCq2XOCNj52TA6JmjUXUrLHQaXUoT89Fyt4ziPvgF85+JddudGug4hHGHf8vvJhqsE9FluEQi9RPbrCus2Qh3Auu99A+WPDlC106Z1lZGSfPQSKRWJzT0J3c3NyYG4YplUo0NTXB3t58ABcaGgqhUAitVovS0lJOJVoAvJVoAXB6Unx8fHiDFIA7pGAJ9gWenXfRU6RSKTMV2FiSa2sgw6epqYm5eIvFYkyZMoV3v84Ga5YMl7GDjM6+Z+wLjqlk344M++Tm5nJyFtzc3CCXd9/vc09QNaqZ2TaR/i5YvSCad7/8ko4ljbLjnOaWjvfAuDrZYUR/BUb0V+ChBdE4fqkAi149BgA4m1yO8uoGyN3beqnDAtqG0SuUxgPPjmLXXLK0545Yj9DNzQ3PPvssHnrooV4RpCiLyqFp4iY6CYQCeEUFY8IzixE4mdu9X1dsvJiPgxu3xH1zdQOqc4qN7K0na9crcePAJZRncMtZJ23nFoKTuDvCyZM/W70z3AK5uS6lCVnIv5hiZG/9sNOlbX+ivrza6D5btmxBbGws82/NmjXd1t6Oak2MBGCyQBmbUChkAiudTof09HRO3RBjwz7sb93GboCoUqlQWWk+iY+Nfa6OBjmdwb5At9ahaY89DNYe+8Jt6u+AqXO0xw4w2cM6lh7TWrumI9zc2n7PysrKeD8/xcXFHQqEFi1axPnd+OqrrzrcrputobHtb2SEv/Ebe/54ONPoNj5erCAir6Trs74mDfPHoikhzHJZu1yaEN+24HXHwUx0V3oY+3NB+Si2T7hp0yabv68P26Vv9mPrsFU4v/UXVOUUt0371elQmVWAkkTuL56di/EEQmdvw56WP5/5BP/f3p0Ht3mfdwL/vgCIiyBAAiBBiLdIirdEibJi2o5qS7YcbRTHqZ3WGaeN3Ta7dbrtpE26k+mk09leOSdtd3e6SZy26RVnHadxrMRuZDuSZVESRYmkDoriIZHgKV64rxfAC+wfNF/i5fu+IEjxAKjnM6MZvPcPLyi8D37H8+v5l7dw570e3HmvByNne5Hgln85VB85iFy7cK6THz/3Fxh6pwsz12/jva/+qyhj7YNf/LUNHYVUVF+JXY8IOzm//pm/xuV/PIn54XGEnF4sDE/gzns9OPv1f8ffN7yAM3/yjwi55H9R7wRNTcu/Gru6uviHY/IQ5pWSmxukMtsmEgn88pe/XHMH2uTzDg0NpR1wrVddXR1fi+NyuUSZV1mWlUxjvyR59thAICDZNNLb25t2B1dA+AAYGRlJ65i2tjb+9cWLF1MGOFL5UAoKCvhOtIlEAlevXhUdtzSVwk5WYFoONs/1zcEXFI9i+cV5R1qdUwXnNS6f97X3xzC3SpJKLp5A54274Djp2heOi2NwfDmQNxmEtacHG4pwqG6x2fzSwAJ++t4d2WvFuDjeuTS+aplI9lFlY9tcxB1Cx1++go6/XMzUWLDHjsCsW7KfSulB+VFLuYUmUafX6QsDmL4gbM5JnutHpVXj0b94AT//nb/htwemXTj5ma9LXsNYUYjWTx1L+72lg1EwOPrnv41/PfJFfl3EHcLZP/0XnEXqhHXZIDnp0loe8CUlJVCpVIjFYoIHal1dnewxRUVFfAdTv9+P1157DU1NTSgrK8PCwjw6Oy+tq0Zk165d/BDYSCSCH/7wh9i9ezdfY2C1WlFeLmxvn5ycFLzf5NqecDgsyhGTl5fHB0Q6nQ4VFRV8/5E33ngD7e3tsNvtcLvdOHfuXMpaBIZhYDAY4Pf7kUgk8Oqrr6K5uRnV1dUIhUK4cePGmvumlJSU8EPPBwcHwbIsdu3axd8DvV4vGkrd1NSEa9eu8cn1XnnlFbS2tqKkpAQGgwFutxvz8/O4desWfD4f9Hq9qLbsgQce4LPPXrlyBeFwGLW1tYhEIrhy5UrGp8/fCAqGwUcP7cLPL03BE4jiM//zl3jho3vwYIsNHl8Eb5138J1o14JhgD/6ZCO+9aPFoPdjf/yf+G8fq0ehefEHoTE3B4f3L3+m0VgcT//Ju7AX6PC7T9fhgcYilNoM4GIJXBmYxevvjfJp/g/UFGBXoXDEmlKpwJ9/9iA+8sXFH38vfesCLt6Ywa89Xo3SIgO4eAJjd33oGZzHd386iGlXCG9945ig5kdKqv5LJPOklZk208nN+9P2+0+l7BuiUCrx2Fd+Gz974Ztrut6eJ9sx8/kRXP7b11Pul2svwMe+8wWotBs/wqCwrgLH/vfv4dTvrz4qJtskN/243e41Vc3u3r0bg4ODgnWp2qDVajX279/PZ7d1uVw4d+6cYB+GYfhRReliGAaHDx/GO+8sTvkQDAYFv/7tdrsoUEk1CWQkEsEvfiGsqbPZbHjqqeWszA8//DCmpqYQiUQQj8cFqegB8H145Bw5cgRvvPEGf73u7m7+viwpLS3FxER6w9wrKipQUFDA92txOByCPkF6vR7PP/+86Ljjx4/j5MmTCIfDiMfjkuVIZc+ePejv7+c/r76+PkGuHiD16Ked4su/1YafX1qsJbzQP893XE2WHHSk67NPN+LHZ0fhmAnCMRPkM9sCi/1h3vu/4jw+064Q/kxmQsElX/s96QSd+/ZY8be/fwif/yBN/j+fuoN/PiVfs5KO5NrTbOjycL/LunzBVb/SitpPtEOdImIu2GPHsf/1ORz+Y/GX4Ep7nvgQfuOX30TLi0/A3l4natYBxHP9MAoGh//4eTzzoz+FsUJ6Dp/65w7jM+/+DWwt8nlAxOdd28fR/KuP4rNXvo09z6Ruuit7tBlHvv47KecbWjmJXKrJADdbcjbRU6dOrenYlb+uTSbTqonjljKOSuVYycnJwfHjxwVzg6SbZruqqoqfZ2bl/ZS61lonIVxZDr1ej0996lMwm8VNmiqVCk899RRfDqlr2Ww2HDt2TDD53xKlUom2tjbBcPJ07sMzzzyDw4cPIy8vT3RNufebn5+P559/Hg0NDbL7MAyDoqIi2ZFBH//4xyU7RjMMg4ceekiQDG6197GyM/d2/N9Ivgs5qvT+/ip3GXHqWx/BgRrxd1qFTY+X/8fDeO7Ycqp5ZZp/1/l5Grzzdyfwh882is69MhNujpLBHz7biMZy+X4yz364HGf/z0fRXC0/MvLXn6jFxe88haP75XNR/UpLEb7+u22oLkvdStDf38/346qrq9vW7zqSHiaRpT8rElwcnqk5hF0+BD/oe6E15UJvNcFot/JZXLdC2BPAwu0JRAIhGHcVoqCiGArV1l0fAOIcB99dJ7yTc4gGw1Dn6qAzG2GwFUBjSC/Da6bo6enBs88+yy/v27cPtbW1MJlM+NKXvrRp83EsTV7odruhVqtRUlKStb+2IpEIpqamEA6HUVxcvKbhl/F4HAsLC3A6nWAYBsXFxbIdjbeC3+/H7OwsQqEQtFotTCYTCgoKVk33Dyw2Hc7OzsLlcsFiscBmWz079E7DcXFMzgUwcdcPRsmgtswkGFmzVebcIdydD2LBE4ZSwcBi0sJu1Qv6vaQjGuMwftePqfkA4okEbAV6FFv1ov4tyX7yk5+gp6cH09PTfBoDAHjppZfwxS9+UfY4khmyNlAhO9s3vvENfPvb3xatHxwcTOsBRQghSz7/+c/j5MmTgnWHDh3Cd77znW0Nwkl6tiRQ6f7+mxh5r+eezvH4X3wWplLpuTvIzjQxMcH3NZibm0M0GsUXvvAFmuGUELImr7/+OoaHh1FQUACz2Yw9e/YIRgmSzLYljXMLwxNwnErdkWo1kS/RkLP7TWlpqaBvCCGErMfTTz+93UUg94B+mhJCCCEkY21J0493eh4h570lG7PWlkKpFo9GIIQQQsjORZ1pCSGEEJKxqOmHEEIIIRmLAhVCCCGEZCwKVAghhBCSsShQIYQQQkjGokCFEEIIIRmLAhVCCCGEZCwKVAghhBCSsShQIYQQQkjGokCFEEIIIRmLAhVCCCGEZCwKVAghhBCSsVTbXYBsE5h3I8HFZbfrLCYoVcp7ukaMjSAaCIGLcvw6rTEXKp3mns57v0okEvD5FifFVKvV0Gq1W3p9juMQCoUQjy/+3SgUChgMhrSOZVkWHMeBYRjodLrNLOaWCQQC4DgOSqUSubm5210cQkiGo0BljS5/7yQ4Niq7ff8Lx1FQYV/zeWPhCMY7+zB24Ybk+etOPIyStro1n5cA4XAYZ8+eBQCUl5dj7969W3JdT2mhsQAAIABJREFUp9OJGzduwOv1CtarVCp85CMfSescly9fhsvlAgCcOHFiw8u4HS5cuIBwOAyNRoMnnnhiu4tDCMlwFKhkiFtvncfstTvbXQyyQbxeL86fP7/dxSCEkKxHgUoGCHn8FKTsMMPDw/zryspKlJaWQq1WAwAYhtmuYhFCSNahQGWN2v/7M0gklpc7vvXDez5n2OkVrWv8xGGYyouhUC72d6b+KdnF7XYDADQaDZqamtYdnDQ3NyMWi0GhoH7vhJD7EwUqa6Q26Df8nGFfcMU1dCjeW7Ph1yFbI5FIIBhc/Exzc3PvqQbFZDJtVLEIISQrZW2gkojHsXB7Ev4ZJ8JuP6JhFmq9FupcHfRWE0xlNmiNqUcUxNgIPBNz8M+6EJx1gVEqkFtUAL3FhPyK4nsevZOq7PND41iqmPGMzYj2mR1wCJbzbBbo8qVHikQiEVy8eFGwrqmpCRaLZUPKKycajfIdPQ0GA/R6cRC32j5+vx9+vx8AYLFYoFQq4fV6sbCwAK/XC71eD5PJBJvNtuoDPxAIYGFhAW63GwzDwGw2r/keRCIRuFwu+Hw++Hw+qNVqGI1GmM1m2REqiUQCMzMzguXk8929e1ewv0KhQFFRkeS5/H4/wuGwaD3DMKu+F6fTiUgkAgAoLi5GLBaDy+WC0+lEMBiEwWBAYWEh8vPzU54HWByp5Ha74fP54PF4AAD5+SaYTPlpHR+JRPjPgmVZFBTkw2y2IC8vb9VjCSEkWVYGKm7HXfSfPIfQgrjJJFnDxx+BvXWP5DbX6DT6fnwGEX9Icrvemo/Gpz8MY0nhPZd3JS4aw/Ufviu7PeIP4caK7alG/czPz+PFF18UrHv55Zdx5MiRey9sCl6vF5cuXQIANDY2Yvfu3aJ9fD4fv099fT1qaoQ1RVNTUxgcHAQAtLe3Y3h4GHNzc6Lz2O12tLa2QqmUDh7Hx8dx9epVwTqHwwGVSoXW1ta03s/MzAx6enoQi8Ukt7e0NKOiolK0Ph6P4/Lly5LH+P1+0bZUo36Gh4cxMTEhuW21UT+3bt2C0+kEABw9ehTnzp0Dy7KCfQYGBtDQ0IDq6mrZ8/j9fnR3d4tGK42PjwMAysrK0NzcLPtZuN1udHV1Ca699J7S/SwIIWRJ1jV8B+bd6P7+m6sGKQDAxaTznYx19qHnn9+SDVIAIDjvxuXvnRTVbJDN09XVxQcpRqMRKtVyHD09PY2JiXHJ4xwOhyBIUalUMJvNAIBYLCYbRCQbHBxEV1cXH6SoVCpYLBZBDdD16zdw69Yt0bEMw0Cv1/P/VuZpSd6m1+tT1irk5ORApVLx/9ars7OTDxSMRqNgW39/P59XZqW5uTmcOXNGEKSYzWbBOcbHx3Hx4kVBzdESj8cjCpDMZjP/Xnp7eyVrjAghRE7W1ahMdg+I1lkbK5BnsyAaZhGc88A5LP2LFABCbj+G/7NTtN5SWwrf9IIoeBn82XlYdpdAmbNxt4rB2vssMMqdP1IkFovBbrdj3759/INtaGgIAwMDH7weFtVocByH/v5+fjm5toDjOPT09IiaXlby+Xx8rQ4A7N27F+Xl5fyy0+nElStXwLIshoeHUVJSIgg2FAqFoPYqHo/jzTffBABYrVY8+OCDad+DpqYmNDU18csdHR1809la+P1+1NfXo7q6GgzDiO7F6OgoWlpaBMdwHCcI+KqqqlBfX8/XnASDQfT29sLpdMLlcmF8fFxwn4DFz2tJcXEx9u/fzx9/+/ZtwWdFCCHpyLpAxTMmfOhUP3EQFQ8JE3ix/iAmLvUjJ1ecgfT2aeGva53FiAMv/BdoDHok4gl4Jmdx9d9P8UnXIv4QJrpuiq5xL5SaHBz5s9/il6evDqH/9ff5ZYPdjEP/9ekNu1620Gg02L9/v2CES01NDcbHxxEMBhEOhxGNRpGTk8Nvn5iY4GtB7Ha7oElDqVTiwIEDePfdd0VNIMn6+vr4162trSgtLRVsN5vNaG1tRWfnYoA7NDSEAwcO3Nub3WQlJSWCZjalUonGxkY+UFnqd5JsZGSEr+0oKysTBEzAYs1QW1sbTp8+jVgshps3b6KsrIzvO+Tz+fjzq1QqHDhwQPBZVldXw+PxYGpqamPfLCFkR8u6ph9mRbv4/OAEQm5hM5DGoEf1kTbYGioF6+McJ8pXUvahJmg+GMnDKBjkl9lQvFfYfu8eTf2LfLtpNBq0tbUJ/qXT4THTVFVViYbhMgwDq9XKL68MOJb6ZACLD9eVFAqF6Fd/MpZlMT8/D2Cxs+/KIGVJYWEhX4uysLCwyjvZfpWVlaJ1er0eGs3iMPelDszJkvvG1NVJ94fSaDT8/YzFYvzoJkD4WUh9lgBSfhaEECIl62pU8mxmeMdm+WWP4y4u/N1rMJYXoaihCgWVxcizmQGJESKsR/zlHPL44Dh/HcByezsbEDb/+GfXXvW+lSwWC1599dXtLsY9k5v/ZunhCkDU0TX5QSkXnBUUFMheM/l4v9+fMptsKLT4d8GyLFiWFZQr08jNC6TX68GyLGKxGBKJBF8bkkgkBMFLd3e37LkDgQD/2ufz8aOhkvueyA2rzsYAmhCyvbIuUCk92IjJLnGHRu/YLB/A6CxG7H7sAGxNwlEoQZc4UBnvuLHqNVlPAPEYB8UmDVcmi+Qe/Mm/zJcm9luS3Ck0uUko2VJGWCnJD11AWCuQSjQazehARa5sckO8l4KwJeneh6Xh0CvPITfx4710ECaE3J+y7lsjtygfe59/An2vnZGdHDC04EXfa2cQcvtQ+fA+fn00uP7RBvFojAKVTbaexGjJNSxyx6d6OEajy39DVqsVdntxWtfN5CAFWPu9TA44NBoN9uypTeu4pdFVK8+Rikqlkh0CTgghK2VdoAIA1poyPPJHn8L84BjmBhxYGJqQDFruvHMF9pYaaD5I/CaVAM5cI90nIRnDiPvGLFFqcoTXjouHbN7PNvuBpNVq+SYHjuMkc3skByMrJTeR5OXlSeZJuR8k34ecnJx13Yfkc3AcJ7lPIpGgIIUQsiZZGagAgFKtgq15N2zNu5FIJBCYdeHu9TsY67gm2M87PY/CpUClQJy/ovmZR6HSyjcNrEZt0CGUFKhE7qHWZr04jsPo6Khgnd1ul8wUu5GSgwK5YGCzc2YYDAb+GpFIRLJvRqoRP8n36H7O75FcQyTV0TYdyfde7p6n+iwIIURK1o36CXn8iMeEv9YYhoHBZkbN4weRXymsume9y50lNRLz9Excls/rEOfimLk5AveY/KgfrUlYS7OQIofLZpmZmcGxY8cE/1am1N8MyX0/VvZxWLKeHCBrkZzWfnZ2VnKf6enptI6fnp6+rx+kyc04cvcyleSgTy53zXrOSwi5v2VdoDLe2Yf3v/kDjJztRXDBgwT3QefKRAKBeTd808Kho0rNcgdLRsGg4vA+wfY7717BwJvn4Z2aB+sPIuT2wjUyBcf5azj/t/8PfT86jcCcW7Y8ugJh1s+7vcPo+t5PMdUzgPnBMcwPjqUMdLJZ8q/wu3fviqr7A4EAn3Z9s5SUlPCvR0dHJcswOTkpe7xSqRTkXhkYGJDMuLrE7XbzMyPvNMn3ob+/P2WTWTAYFAUjRUVFfH+gqakpUUdljuMwMjKygSUmhNwPsrLph2OjGDndjZHTi0ModRYjIv6QZD+V/HJhDUvlw/sw3T0oyEA72XVLciRROnYdqMPUFWG2XN/kAm5NdvDLubYCfOh3P7Gu82cypVIJs9kMp9OJWCyGzs5ONDY2IicnBx6PB9euXVv9JPfIbDbzZfD5fOjs7ERDQwO0Wi08Hg+uX7++6jlqamrgcDgQi8UwNjYGn8+H2tpaGAwGKBQKhMNheDweOBwOeL1e1NfXb8ow22AwKOqQmlzDszJAUiqVGzrJn81mQ1FREWZnZ+Hz+XDmzBk0NDTAZDJBrVYjHA7zgd/MzAysViuKi5f/f6lUKlRVVfHZac+fP4+9e/fCaDQiHA6nTN1PCCFysjJQWUlu3p/S9ibRjMNKtQotzx3FjR+dBusJSB63FsZdVthbazHdO7T6zjtQTU0NP+mg0+nEuXPnBNsrKirgcGzufElNTU24cOECYrEYnE4nOjo6BNuTO9xKycnJwaFDh/g0+S6Xi39PW6m/vz9lM9XKe6vX6zd84smWlhb09PTA6XSCZVn09vau6fjdu3djbm6OnzW5q6tLsF2j0dzXzWuEkLXLuqYfS3UprI0VgiadlXQWI+qfehi1jx+S3G4qKcKDv/cMKj68T3L7Er01H1WP7oe5OvXIoIanHkHjr/4KrPXlkuViFKmHiq4cSrra/itJjXTZqnwVRUVFkjPiajQa7Nu3T5DpVWrIbDrDaJP3kdrfZDLh8OHDkrUcxcXFaG9vX/V6ZrMZjz32GCoqKmTLodfrUVtbi127dqVdXqnsrOkcl461nDvdY3Q6Hdrb29HU1CT7N6RSqVBRUYE9e8Qzk+fk5KC9vV3QJLfEYDDg4Ycf5vuyrGc4OiHk/sMkUjXIZ7BEPIGwx4dIMIxoYPHXskqngSZPB63RACbdL/FEApFACCG3D5EAC2WOEupcHdS5WqglOt8SaRzHwefzgWVZ5OXlbfqIIzmRSARerxcMw8BkMq0rYEskEgiFQggEAojH49BoNNBoNLLZXncylmURCAQQiUSgVquh1Wqh0+nSCjI4joPX60U0GoXRaJRNAkcIIalkbaBCCCGEkJ1vS9oHxi7cwMJt+ZEX6ag/8RB0+RvXcZAQQgghmW9LApXAvBuuewxU5NLlE0IIIWTnyrrOtIQQQgi5f2xJH5WQx39PEwICgKGoAAqZ+XYIIYQQsjNRZ1pCCCGEZCxq+iGEEEJIxqJAhRBCCCEZiwIVQgghhGQsClQIIYQQkrEoUCGEEEJIxqJAhRBCCCEZiwIVQgghhGQsClQIIYQQkrEoUCGEEEJIxqJAhRBCCCEZiwIVQgghhGQs1XYXgJD7QSKRgM/nAwCo1WpotdotvX48Hkc4HEYsFuPXGQwGKBSr/1ZhWRYcx4FhGOh0us0s5pYJh8OIRCIAgLy8PDAMs80lIoTIoUCFkC0QDodx9uxZAEB5eTn27t27JdcNBoO4efMm7t69K9r26KOPwmAwrHqOy5cvw+VyAQBOnDix4WXcDkNDQ3A4HACAI0eOQK/Xb3OJCCFyKFAhZIfiOA4dHR1gWXa7i0IIIetGgQohO9TExDgfpFgsFtTV1UGj0fDNHDulGYcQsrNRoELIDuXz+fnXLS0taTXzSGlubkYsFkurPwshhGw0ClQI2aGCwSD/+l5qT0wm00YUhxBC1iVrA5VEPI6F25PwzzgRdvsRDbNQ67VQ5+qgt5pgKrNBa8xNeY5YOALPxCz8s074Z1zI0WthsBXAYDPDaLfKHjc/OIZ4IsEvmyvsUGnV/LLLMY1oOMIvG+1WybKEXF74Zl38ssagg6mkCNEgC8/EDFxjd8H6gtCZ8mCu3oX8smIwCunRCaw/CM/ELILzHvhnnQAAXb4RuVYTrHXlUGnUkscBi/fSMzGLwJwb/hknYpEYcgtNyLXmw1RaBHXu6g+5SCSCixcvCtY1NTXBYrGseuy9SCQSmJubA7A4miY/P19yv9nZWdl9/H4//P7F2geLxQKlUgmv14uFhQV4vV7o9XqYTCbYbLZVR4cEAgEsLCzA7XaDYRiYzeY134NIJAKXywWfzwefzwe1Wg2j0Qiz2YzcXPm/aafTyY9kWXpfS5buUbLCwkIolUrRer/fj3A4LFrPMMyq7yW5DMXFxYjFYnC5XHA6nQgGgzAYDCgsLJT9nJJxHAe32w2fzwePxwMAyM83wWTKT/v4hYUFeDwe+P1+5OXlwWw2o6CgYNVjCSGZIysDFbfjLvpPnkNowZtyv4aPPwJ76x7Zc9x47TQi/pDkdtu+GtQdf1D0gE8kErj2yjuCdQd/52MwlhTyy4NvXURgZjkAafzEYRTvrRFdY/bWGG6fusQvW2pLUfHIXnT/05uifR3vX0Xzrx9BUX2lqDzTvYO49UaH5PtYUnu8HWWHGkTrQ24v+n5yFt6xWcnjlJoc1H30IRQ37wZSPKTn5+fx4osvCta9/PLLOHLkSMpy3at4PI5LlxbvYVFREQ4dOpRyH4vFgvb2dsH2qakpDA4OAgDa29sxPDws+WC32+1obW2VfLgDwPj4OK5evSpY53A4oFKp0Nramtb7mZmZQU9Pj2AYcbKWlmZUVFRKbrt16xacTqfktsuXL4vWyY36GR4exsTEhOR5Vhv1k1yGo0eP4ty5c6LOvAMDA2hoaEB1dbXsefx+P7q7u+H1Cv+Pj4+PAwDKysrQ3Nws+1mwLIsrV65I3o+ysjIajkxIFsm6QCUw70b398UPcilcLC65frJ7AAMnUz/YZ64Owz06jQc++1RaNQobwT02A/cP3l7TMX3/cQazN0ZW3c8/syB5ve5/+nnK4zg2ipv/8R58MwuofVwcBOw0XV1dfJBgNBoRDAb55enpaVitFslAweFw4Pr16/yySqWC0WiE0+lELBaTDBRWGhwc5AOmpXOYTCaEQiG+Gef69RsIhcKor68XHa/T6QTDbJObfrRaraiPiVyfk5ycHKhUy18NckHTajo7O/kgxWg0CoKO/v5+FBUVIS8vT3Tc3NwcOjs7BevMZjNisRh/jvHxcfj9fjz00EOioIPjOLz//vuCWqH8/HxEIhEEg0E+2CGEZIesC1QmuwdE66yNFcizWRANswjOeeAclv41CAARf1AySFFqcsCxUcE61hPA6Nle7DneLtp/M6y8/mpmBxyyQYrOYkxZ45SIx3FL4j7kVxYjxkbgnxb+Eh3vuAF7Sw0MNvOayphtYrEY7HY79u3bxz+sh4aGMDAw8MHrYVGgwnEc+vv7+eXk2gKO49DT0yOZxySZz+cTBCl79+5FeXk5v+x0OnHlyhWwLIvh4WGUlJSIHvL79+8XLF+4cAELC4sB6tGjR9OuRWhqakJTUxO/3NHRwedRWQu/34/6+npUV1eDYRjRvRgdHUVLS4vgGI7jBLVSVVVVqK+v52tOgsEgent74XQ64XK5MD4+LrhPwGIQsxSk6PV6tLe383105ufnRU2UhJDMlnWBimdM+IVf/cRBVDwkTJ7F+oOYuNSPnFxx9s+Rs72ida2/8STMu0sQj3HoP3kOM9du89smLvVjV1s9DEVb165d+mAD7PvqkFtoQiIWh3/OidvvXhHsw8U4DL0l/sJtePrDKG6pBqNQIM7F4Zuew1BS89KSqatDCM67BevafvsETKVFAIDgggf9JzvgcSzf76G3u7D/009uxFvMWBqNBvv37xfUNtTU1GB8fBzBYBDhcBjRaBQ5OTn89omJCb7WwW63C5o0lEolDhw4gHfffTdlPpO+vj7+dWtrK0pLSwXbzWYzWltb+ZqGoaEhHDhw4N7e7CYrKSlBTc1yk6dSqURjYyMfqCz1O0k2MjLCBxllZWWCgAlYDDza2tpw+vRpxGIx3Lx5U9CUE4/HMTQ0xO9/8OBBQUdiq9WKlpYWQe0XISSzZd14Q2ZFm/T84ARCbmHNgcagR/WRNtgaKkXHT3bdEizvPtoG8+4SAIBCpUTDU49AqckR7LMwvHVVxbuPtmHPk+3IKzZDoVRCqcmBqdSGA795HIV7ln85+mcWwHoCgmPrP/4I7PtqwXzwkFUoFTCV2tD2wglUfnifYN/ZG3cEy9bGCj5IAQC9xYTSFX1aXLcnkYhLN6dpNBq0tbUJ/qXT4THTVFVViZpEGIaB1brcuXplwJHcD6KsrEx0ToVCIfrVn4xlWczPzwNYTGu/MkhZUlhYyNeiLNWUZLLKykrROr1eD41GA0DY2XdJct+Yuro6yfNqNBr+fsZiMUETVyAQ4D+f/Px8GI1G0fG7du1K/00QQrZd1tWo5NnMgo6fHsddXPi712AsL0JRQxUKKouRZzNLdvyMBMQdZ23NuwXLCqUSuw7WYbzjBr8uuEqn3Y1U9qEm6Q0MI6i6Dzl9gs1KTQ6KW8QddgGAUTDQ5QubCbyT84JlLhyB4/x1AMujmaLBCFYK+4LQmcQdMC0WC1599VXpsmcRuVwjSw9XQNxnI/lBKRecpRppkny83+/H+fPnZfcNhRb/hlmWBcuygnJlGrkh0Xq9HizLIhaLIZFI8H/XiURCELx0d3fLnjsQWA7SfT4fPxoquV+K3AilnJwc5Ofnw+12S24nhGSWrAtUSg82impFAMA7NssHMDqLEbsfOwBbkzAICbvFv+Ckhg3rC4S/wgLzW/OFlmsrgDInvY8k5BQGT3l2CxTK9CrIODYi6g/jujMN153pVY9l3X7JQGWnkHvwJ9eyxFfUKi1NNghA0CSUTK2WHx6e/NAFIDtyZ6VoNJrRgYpc2eT6yiwFYUvSvQ/JQ7KTz5HqnmfyfSOECGVdoJJblI+9zz+BvtfOyHY+DS140ffaGYTcPlQ+vNzkwUXFoxcYiZEPK5t+ogFxTonNkKNL/8szGhSWSao/jpxIaP1zv8Qia+vwm23WM2w1uYZF7vjkUTQrRaPL99RqtcJuL07rupn+sF3rvUwOODQaDfbsqU3rOLN5uYN38meRKpOuXEBJCMk8WReoAIC1pgyP/NGnMD84hrkBBxaGJiSDljvvXIG9pQaaD2pN1HpxVTQX46BUCfu9RPzCIEBXIG7nTmW9gU26tSkAoFlRqxF2+2T2lDg2TzxTbK6tAJq81AnyAECtTz8gyhQra0A2mlar5ZscOI6TzO2RHIyslNxEkpeXJ5snZadLvg85OTnrug9a7fLfZ6ph1VIJ7QghmSkrAxUAUKpVsDXvhq15NxKJBAKzLty9fgdjHdcE+3mn51H4QaCizRc3WfjvLgg6kQKAd0qY/ExvXU4hLvUbMbmmhvUHZZPIbSSdRRg8+SYXwPqD0BhWn65eoVRCY8oVdMatefwBWGqkO3Gmg+M4jI6OCtbZ7XZBXo/NkPyrWe7BtNkPJYPBwF8jEolI9s1INeIn+R7dzw/Q5BoiqY626Ui+96nuZXK/IEJIZsu6UT8hjx/xGCdYxzAMDDYzah4/iPxKYbU5613+QlKqVdCYhLUG45f6gKR0+CG3F7PXhblJcq1JHSQZRtQ0FJhfHmbpmRRnNN0MuQXi+VfunO5GIp4QrQ/MuTGzYpSPwS7MhzJ2sU/y2CXusRlMXxuW3T4zM4Njx44J/m1FvgqGYfgH3Mq+Hks2u9Nkclr7pVT9K01Py/f/ST5+eno6ZVCz0yU348jdy1SSa1QmJycla9P8fj8FKoRkkawLVMY7+/D+N3+AkbO9CC54kOA++CJKJBCYd8M3LRy2uTKoqPywMJX57PURDLx1AZ7JWcwNjKH7+2+Jjrc1VQnW5RYJR3bcfqcLYxf7MD84JpnbZDPkFuXDUiusAZnuHkTvD05hdsABz+QsZm+NYvBUJzr//j/gHJkS7Ft6sFGw7Lo9id4fnIJrZAphTwCsLwj3+AymegfR9b2fovuffo75wbFNf1/rsVQjwbKsKDEZx3EYHpYPsDZCSUkJ/3p0dBQcJwykA4EAJicnZY9XKpWC3CsDAwNIJFIEjW73jh2xknwf+vv7UzaZBYNBUSI9nU7Hj/aJxWKSAeKdO3dE6wghmSsrm344NoqR090YOb04fFFnMSLiD0n2U8kvF9aw7GqtxfjFPkGys8muW5IjiQCg5slDggkHAcBUboN3fLnmhGOjGP5F58pDN13tkx/CwpAwC6/r9iRct+Ufikss1SUoaq4SZLZN99hMU1RUxAcoly9fxt69e5GXl4dgMIhbt26tuxkhXWazGWazGU6nEz6fD52dnWhoaIBWq4XH40kruVhNTQ0cDgdisRjGxsbg8/lQW1sLg8EAhUKBcDgMj8cDh8MBr9eL+vr6TclTEwwGBZ1aAWGz1coASalUSqbBXy+bzYaioiLMzs7C5/PhzJkzaGhogMlkglqtRjgc5gO/mZkZWK1WFBcL/4/X1tbyeWYW502KorCwiL+3Y2OZGXATQqRlZaCyklyq+NL2JuhW9EthlAo0P/sorr7ytihhmuj4Qw3YtU888qD0gUZBnpVkOosRHBvdkn4qeosJTc88ir4fn1nX8bVPfggRfwju0dTp3TNdeXk5n+KeZVl0dXUJtldWVor6z2y0pqYmXLhwAbFYDE6nEx0dwukJkjvcSsnJycGhQ4f4NPkul4ufSHEr9ff3p2ymOnfunGBZr9dv+MSTLS0t6OnpgdPpBMuy6O0VZ5NOxWq1ory8nA9Irl8X/19VqVTrnsOIELK1sq7px1JdCmtjhahJJ5nOYkT9Uw/LTqJnsJnx4EufgP2A9MzKaoMOLc8dxZ7j7ZLDl3UmA/Z/5rioDHprPpqfPQJ1nrAzpdQ5AInhm4q1D421Ne/GQ5//dVjqxRlRlxQ1V6GkTTyJncagx/7fPI7GTxyG2iA/8aLaoEPpoQaUP9gsu4/USJdUQ3I3kkajwSOPPCIarqtSqVBVVYWGhuUMu1JDVtMZRpu8j9T+JpMJhw8flqzlKC4uFszYLHc9s9mMxx57DBUVFbLl0Ov1qK2tTSu76nqGWq/1mFRDgNd7jE6nQ3t7O5qammT/hlQqFSoqKrBnj/T/4b179wo+9+TjHnjgAUH2X5pJmZDMxiRSNYZnsEQ8gbDHh0gwzA8HVuk00OTpoDUaZIMD8XniCLl8CLl8UOaooC80SQ5jlsLFOATmXIgEQsi1Fohqb7Zagosj5PYh5PYjkYhDY8iFLt8garqSE2MjCLl8YH1BgFkczp2j10Jrys2KL/N4PI5AIIBgMAitVguj0bgt5Y5EIvB6vWAYBiaTaV0BWyKRQCgUQiAQQDweh0ajgUajkc32upOxLItAIIBIJAK1Wg2tVgudTpfWZ7uU7TYYDCI3N1c28zAhJHNlbaBCCCGEkJ1vS+rmxy7cwMI9dtKsP/GQaL4aQgghhOxsWxKoBOYVwpWyAAACyUlEQVTd9zyaRC5dPiGEEEJ2rqzrTEsIIYSQ+8eW9FEJefyiSfTWylBUAIXEyBJCCCGE7FzUmZYQQgghGYuafgghhBCSsShQIYQQQkjGokCFEEIIIRmLAhVCCCGEZCwKVAghhBCSsShQIYQQQkjGokCFEEIIIRmLAhVCCCGEZCwKVAghhBCSsShQIYQQQkjG2pLZk1OJRqN4770zWJnIX6PR4PDhw2md49atWxgfHxetb2xsRElJyUYUk5BVXbt2DTMzM6L1ra2tKCwsXPX4QCCA8+fPi9bn5eXhwQcf3JAyEkJIttn2QIVlWYyMjIrWKxSKtAOVO3fuYHJyUrTebDZToEK2zNDQEJxOp2h9aWlpWoGK3+/H6OioaL1arb5vApVgMIiJiQkAgM1mg8lk2pDzxuNxDA8PAwBMJhNsNtuGnJcQsvm2PVBJplAokJ+fD2CxRmU9cnNz+WMLCgok97l+/Tqk5mJUKBQoKCiA1Wpd9/XJ/WvXrl38a6/Xi1gstqbjdTodzGYzvywV9GQLjuNw+/Zt3Lx5E9euXQPHcWhtbUVjYyNqamqglJkJ/erVq/j0pz8NAPirv/orPPfccxtSHo/Hg+PHjwMAPvnJT+KrX/3qhpyXELL5MipQMZlMeOaZZ+7pHEeOHEFxcbHs9ng8josXL656Hq1Wi8OHP4yKisp7Ks9WCIVCePvttwEs/no/cODAfVmG7dbe3s6/Pn/+PPr6+tZ0vNFoFPz9v/zyyxtWtq0UjUbx5S9/Ga+99ppg/b/9278BAE6cOIGvfe1r0Gq121G8rPTd734X8/PzyM/Px+c+97ntLg4hW0rxla98BXfv3t3ucmSccDiMU6feRkdHx3YXZVUsy2JmZgYzMzNwOBz3bRnI9guHw/iDP/gDUZBiNBr51z/72c/w0ksvIRgMbnXxstYrr7yCf/iHf+CDPULuJ/8foebiW0puw4EAAAAASUVORK5CYII=;" parent="1" vertex="1">
                    <mxGeometry x="780" y="21.55" width="90" height="60.11" as="geometry"/>
                </mxCell>
                <mxCell id="94" value="2" style="text;html=1;align=center;verticalAlign=middle;resizable=0;points=[];autosize=1;strokeColor=none;fillColor=none;" parent="1" vertex="1">
                    <mxGeometry x="400" y="520" width="30" height="30" as="geometry"/>
                </mxCell>
                <mxCell id="97" value="return" style="edgeStyle=none;html=1;exitX=0.5;exitY=0;exitDx=0;exitDy=0;entryX=0.392;entryY=0.995;entryDx=0;entryDy=0;entryPerimeter=0;" parent="1" source="96" target="3" edge="1">
                    <mxGeometry relative="1" as="geometry"/>
                </mxCell>
                <mxCell id="99" style="edgeStyle=none;html=1;entryX=0;entryY=0.5;entryDx=0;entryDy=0;fontSize=10;" parent="1" source="96" target="9" edge="1">
                    <mxGeometry relative="1" as="geometry"/>
                </mxCell>
                <mxCell id="100" value="alternate" style="edgeLabel;html=1;align=center;verticalAlign=middle;resizable=0;points=[];fontSize=10;" parent="99" vertex="1" connectable="0">
                    <mxGeometry x="-0.4612" y="1" relative="1" as="geometry">
                        <mxPoint as="offset"/>
                    </mxGeometry>
                </mxCell>
                <mxCell id="104" value="child" style="edgeStyle=none;html=1;entryX=0;entryY=0.25;entryDx=0;entryDy=0;fontSize=10;" parent="1" source="96" target="12" edge="1">
                    <mxGeometry relative="1" as="geometry"/>
                </mxCell>
                <mxCell id="123" value="child" style="edgeStyle=none;html=1;exitX=0.25;exitY=1;exitDx=0;exitDy=0;entryX=0.25;entryY=0;entryDx=0;entryDy=0;" parent="1" source="96" target="112" edge="1">
                    <mxGeometry relative="1" as="geometry"/>
                </mxCell>
                <mxCell id="96" value="&amp;nbsp;App WIP&lt;br&gt;pendingProps = element.props" style="rounded=1;whiteSpace=wrap;html=1;fillColor=#6a00ff;fontColor=#ffffff;strokeColor=#3700CC;" parent="1" vertex="1">
                    <mxGeometry x="60" y="300" width="130" height="60" as="geometry"/>
                </mxCell>
                <mxCell id="98" value="&lt;meta charset=&quot;utf-8&quot; style=&quot;font-size: 10px;&quot;&gt;&lt;div style=&quot;color: rgb(171, 178, 191); background-color: rgb(40, 44, 52); font-family: Menlo, Monaco, &amp;quot;Courier New&amp;quot;, monospace; font-weight: normal; font-size: 10px; line-height: 21px;&quot;&gt;&lt;div style=&quot;font-size: 10px;&quot;&gt;&lt;span style=&quot;color: rgb(171, 178, 191); font-size: 10px;&quot;&gt;clone.&lt;/span&gt;&lt;span style=&quot;color: rgb(224, 108, 117); font-size: 10px;&quot;&gt;index&lt;/span&gt;&lt;span style=&quot;color: rgb(171, 178, 191); font-size: 10px;&quot;&gt; &lt;/span&gt;&lt;span style=&quot;color: rgb(86, 182, 194); font-size: 10px;&quot;&gt;=&lt;/span&gt;&lt;span style=&quot;color: rgb(171, 178, 191); font-size: 10px;&quot;&gt; &lt;/span&gt;&lt;span style=&quot;color: rgb(209, 154, 102); font-size: 10px;&quot;&gt;0&lt;/span&gt;&lt;/div&gt;&lt;div style=&quot;font-size: 10px;&quot;&gt;&lt;span style=&quot;color: rgb(171, 178, 191); font-size: 10px;&quot;&gt;    clone.&lt;/span&gt;&lt;span style=&quot;color: rgb(224, 108, 117); font-size: 10px;&quot;&gt;sibling&lt;/span&gt;&lt;span style=&quot;color: rgb(171, 178, 191); font-size: 10px;&quot;&gt; &lt;/span&gt;&lt;span style=&quot;color: rgb(86, 182, 194); font-size: 10px;&quot;&gt;=&lt;/span&gt;&lt;span style=&quot;color: rgb(171, 178, 191); font-size: 10px;&quot;&gt; &lt;/span&gt;&lt;span style=&quot;color: rgb(209, 154, 102); font-size: 10px;&quot;&gt;null&lt;/span&gt;&lt;/div&gt;&lt;/div&gt;" style="text;whiteSpace=wrap;html=1;fontSize=10;" parent="1" vertex="1">
                    <mxGeometry x="-120" y="285" width="130" height="50" as="geometry"/>
                </mxCell>
                <mxCell id="105" value="shouldTrackEffect = true" style="text;html=1;align=center;verticalAlign=middle;resizable=0;points=[];autosize=1;strokeColor=none;fillColor=none;fontSize=10;" parent="1" vertex="1">
                    <mxGeometry x="515" y="185" width="130" height="30" as="geometry"/>
                </mxCell>
                <mxCell id="106" value="1" style="text;html=1;align=center;verticalAlign=middle;resizable=0;points=[];autosize=1;strokeColor=none;fillColor=none;" parent="1" vertex="1">
                    <mxGeometry x="60" y="450" width="30" height="30" as="geometry"/>
                </mxCell>
                <mxCell id="107" value="shouldTrackEffect = true" style="text;html=1;align=center;verticalAlign=middle;resizable=0;points=[];autosize=1;strokeColor=none;fillColor=none;fontSize=10;" parent="1" vertex="1">
                    <mxGeometry x="500" y="285" width="130" height="30" as="geometry"/>
                </mxCell>
                <mxCell id="108" value="nextChildren = wip.pendingProps.children" style="whiteSpace=wrap;html=1;fillColor=#6d8764;fontColor=#ffffff;strokeColor=#3A5431;opacity=30;" parent="1" vertex="1">
                    <mxGeometry x="570" y="340" width="210" height="60" as="geometry"/>
                </mxCell>
                <mxCell id="109" value="3" style="text;html=1;align=center;verticalAlign=middle;resizable=0;points=[];autosize=1;strokeColor=none;fillColor=none;" parent="1" vertex="1">
                    <mxGeometry x="574" y="370" width="30" height="30" as="geometry"/>
                </mxCell>
                <mxCell id="113" style="edgeStyle=none;html=1;exitX=1;exitY=0.75;exitDx=0;exitDy=0;" parent="1" source="112" target="65" edge="1">
                    <mxGeometry relative="1" as="geometry">
                        <mxPoint x="180" y="470" as="sourcePoint"/>
                    </mxGeometry>
                </mxCell>
                <mxCell id="114" value="stateNode" style="edgeLabel;html=1;align=center;verticalAlign=middle;resizable=0;points=[];" parent="113" vertex="1" connectable="0">
                    <mxGeometry x="-0.4003" y="2" relative="1" as="geometry">
                        <mxPoint as="offset"/>
                    </mxGeometry>
                </mxCell>
                <mxCell id="115" value="&lt;span style=&quot;color: rgba(0, 0, 0, 0); font-family: monospace; font-size: 0px; text-align: start; background-color: rgb(42, 37, 47);&quot;&gt;%3CmxGraphModel%3E%3Croot%3E%3CmxCell%20id%3D%220%22%2F%3E%3CmxCell%20id%3D%221%22%20parent%3D%220%22%2F%3E%3CmxCell%20id%3D%222%22%20value%3D%22alternate%22%20style%3D%22edgeLabel%3Bhtml%3D1%3Balign%3Dcenter%3BverticalAlign%3Dmiddle%3Bresizable%3D0%3Bpoints%3D%5B%5D%3BfontSize%3D10%3B%22%20vertex%3D%221%22%20connectable%3D%220%22%20parent%3D%221%22%3E%3CmxGeometry%20x%3D%22244%22%20y%3D%22329%22%20as%3D%22geometry%22%2F%3E%3C%2FmxCell%3E%3C%2Froot%3E%3C%2FmxGraphModel%3Eal&lt;/span&gt;" style="edgeStyle=none;html=1;exitX=1;exitY=0.25;exitDx=0;exitDy=0;entryX=0;entryY=0.5;entryDx=0;entryDy=0;" parent="1" source="112" target="12" edge="1">
                    <mxGeometry relative="1" as="geometry"/>
                </mxCell>
                <mxCell id="117" value="alternate" style="edgeLabel;html=1;align=center;verticalAlign=middle;resizable=0;points=[];" parent="115" vertex="1" connectable="0">
                    <mxGeometry x="-0.0476" y="3" relative="1" as="geometry">
                        <mxPoint as="offset"/>
                    </mxGeometry>
                </mxCell>
                <mxCell id="121" value="child" style="edgeStyle=none;html=1;exitX=0.5;exitY=1;exitDx=0;exitDy=0;entryX=0;entryY=0.25;entryDx=0;entryDy=0;" parent="1" source="112" target="15" edge="1">
                    <mxGeometry relative="1" as="geometry"/>
                </mxCell>
                <mxCell id="122" value="return" style="edgeStyle=none;html=1;entryX=0.662;entryY=0.983;entryDx=0;entryDy=0;entryPerimeter=0;" parent="1" source="112" target="96" edge="1">
                    <mxGeometry relative="1" as="geometry"/>
                </mxCell>
                <mxCell id="112" value="div WIP" style="rounded=1;whiteSpace=wrap;html=1;fillColor=#d80073;fontColor=#ffffff;strokeColor=#A50040;" parent="1" vertex="1">
                    <mxGeometry x="60" y="415" width="130" height="65" as="geometry"/>
                </mxCell>
                <mxCell id="124" value="1" style="text;html=1;align=center;verticalAlign=middle;resizable=0;points=[];autosize=1;strokeColor=none;fillColor=none;" vertex="1" parent="1">
                    <mxGeometry x="60" y="450" width="30" height="30" as="geometry"/>
                </mxCell>
                <mxCell id="127" value="stateNode" style="edgeStyle=none;html=1;exitX=1;exitY=0.75;exitDx=0;exitDy=0;" edge="1" parent="1" source="125" target="49">
                    <mxGeometry relative="1" as="geometry"/>
                </mxCell>
                <mxCell id="128" style="edgeStyle=none;html=1;exitX=1;exitY=0.25;exitDx=0;exitDy=0;entryX=-0.033;entryY=0.383;entryDx=0;entryDy=0;entryPerimeter=0;" edge="1" parent="1" source="125" target="15">
                    <mxGeometry relative="1" as="geometry"/>
                </mxCell>
                <mxCell id="130" value="alternate" style="edgeLabel;html=1;align=center;verticalAlign=middle;resizable=0;points=[];" vertex="1" connectable="0" parent="128">
                    <mxGeometry x="-0.2389" relative="1" as="geometry">
                        <mxPoint as="offset"/>
                    </mxGeometry>
                </mxCell>
                <mxCell id="131" value="child" style="edgeStyle=none;html=1;exitX=0.5;exitY=1;exitDx=0;exitDy=0;entryX=0;entryY=0.75;entryDx=0;entryDy=0;" edge="1" parent="1" source="125" target="23">
                    <mxGeometry relative="1" as="geometry"/>
                </mxCell>
                <mxCell id="132" value="return" style="edgeStyle=none;html=1;entryX=0.408;entryY=1;entryDx=0;entryDy=0;entryPerimeter=0;" edge="1" parent="1" source="125" target="112">
                    <mxGeometry relative="1" as="geometry"/>
                </mxCell>
                <mxCell id="135" value="sibling" style="edgeStyle=none;html=1;entryX=1.025;entryY=0.4;entryDx=0;entryDy=0;entryPerimeter=0;" edge="1" parent="1" source="125" target="133">
                    <mxGeometry relative="1" as="geometry"/>
                </mxCell>
                <mxCell id="125" value="h1 wip" style="rounded=1;whiteSpace=wrap;html=1;fillColor=#d80073;fontColor=#ffffff;strokeColor=#A50040;" vertex="1" parent="1">
                    <mxGeometry x="40" y="525" width="120" height="60" as="geometry"/>
                </mxCell>
                <mxCell id="134" value="return" style="edgeStyle=none;html=1;entryX=0.25;entryY=1;entryDx=0;entryDy=0;" edge="1" parent="1" source="133" target="112">
                    <mxGeometry relative="1" as="geometry"/>
                </mxCell>
                <mxCell id="137" style="edgeStyle=none;html=1;exitX=0.25;exitY=1;exitDx=0;exitDy=0;" edge="1" parent="1" source="133">
                    <mxGeometry relative="1" as="geometry">
                        <mxPoint x="-130" y="680" as="targetPoint"/>
                    </mxGeometry>
                </mxCell>
                <mxCell id="138" value="alternate" style="edgeLabel;html=1;align=center;verticalAlign=middle;resizable=0;points=[];" vertex="1" connectable="0" parent="137">
                    <mxGeometry x="-0.1529" relative="1" as="geometry">
                        <mxPoint as="offset"/>
                    </mxGeometry>
                </mxCell>
                <mxCell id="139" value="stateNode" style="edgeStyle=none;html=1;" edge="1" parent="1" source="133">
                    <mxGeometry x="0.2941" y="10" relative="1" as="geometry">
                        <mxPoint x="-100" y="680" as="targetPoint"/>
                        <mxPoint as="offset"/>
                    </mxGeometry>
                </mxCell>
                <mxCell id="133" value="h1 wip" style="rounded=1;whiteSpace=wrap;html=1;fillColor=#d80073;fontColor=#ffffff;strokeColor=#A50040;" vertex="1" parent="1">
                    <mxGeometry x="-160" y="535" width="120" height="60" as="geometry"/>
                </mxCell>
            </root>
        </mxGraphModel>
    </diagram>
</mxfile>